<?xml version="1.0" encoding="utf-8"?>
<!-- Generator: Adobe Illustrator 26.0.2, SVG Export Plug-In . SVG Version: 6.00 Build 0)  -->
<svg version="1.1" id="Layer_1" xmlns="http://www.w3.org/2000/svg" xmlns:xlink="http://www.w3.org/1999/xlink" x="0px" y="0px"
	 viewBox="0 0 512 512" style="enable-background:new 0 0 512 512;" xml:space="preserve">
<style type="text/css">
	.st0{fill:#010101;}
	.st1{fill:#89734C;}
	.st2{fill:#FFFFFF;}
	.st3{fill:#CF4520;}
</style>
<g>
	<path class="st0" d="M378,357.7c-7.4,0.3-11.5-0.5-14.5-2c-3.3-1.6-6.8-4.6-12-11.6c-0.5-0.7-1.7-2.3-3.5-4.7
		c35.7-27.7,57-70.1,57.9-115.4l57.5-89.1c0,0-30.2-14.5-79.1-26.5L417.1,64c0,0-26.8-7.1-31.5-7.9c-3.4-0.7-6.9-0.4-10.2,0.9
		c-2.9,1.2-5.4,3.2-7.3,5.8C368,63,357.8,76.8,342,98.2C290.4,62,221.6,62,170,98.2c-15.8-21.4-26-35.3-26.2-35.5
		c-1.8-2.6-4.4-4.6-7.3-5.8c-3.3-1.2-6.8-1.5-10.2-0.9c-4.7,0.8-31.5,7.8-31.5,7.8l32.8,44.5c-48.9,12-79.1,26.5-79.1,26.5
		l57.5,89.1c0.1,6.3,0.6,12.5,1.6,18.7c-1.1,0-44.4-2.9-44.4,29.8c0,20.8,20.9,39.2,45.9,46.2c11.4,3.2,23.4,4,35.2,2.2
		c6,6.7,12.6,12.9,19.7,18.5c-1.8,2.4-3,4-3.5,4.7c-5.2,7-8.7,10.1-12,11.6c-3.1,1.5-7.1,2.2-14.5,2l-103-4.5l18.4,43.8
		c1.5,3.5,3.7,7.2,7.7,9.8c4.1,2.7,8.5,3.2,12,3.2h68.7c7.7,0,14.7-0.6,21.5-3.9c7.4-3.7,12.9-10.1,18.9-18.2
		c2.1-2.8,8.5-11.5,18-24.3l59.9,92.8l59.9-92.8c9.5,12.8,15.9,21.5,18,24.3c6,8.1,11.5,14.5,18.9,18.2c6.7,3.4,13.8,3.9,21.5,3.9
		h68.7c3.5,0,7.9-0.5,12-3.2c3.9-2.6,6.2-6.3,7.7-9.8l18.4-43.8L378,357.7L378,357.7z"/>
	<path class="st1" d="M373.2,127.6c19.4,4.5,38.6,10.4,57.2,17.6l-28,43.3C397.5,166.3,387.5,145.4,373.2,127.6z M256,370.9
		c-10.3,0-20.6-1.1-30.8-3.2l30.8,47.7l30.8-47.7C276.6,369.9,266.3,370.9,256,370.9L256,370.9z M138.8,127.6
		c-19.4,4.5-38.6,10.4-57.2,17.6l28,43.3C114.5,166.3,124.5,145.4,138.8,127.6L138.8,127.6z"/>
	<path class="st2" d="M377.4,117.8c23.5,5.5,46.4,13.1,68.6,22.5L405,204c-0.6-5.2-1.4-10.3-2.6-15.4l28-43.3
		c-18.6-7.2-37.7-13.1-57.2-17.6c-0.5-0.7-1.1-1.3-1.6-2L377.4,117.8L377.4,117.8z M286.8,367.8L256,415.5l-30.8-47.7
		c-5.1-1.1-10.1-2.4-15-4l45.8,71l45.8-71C296.9,365.4,291.8,366.7,286.8,367.8L286.8,367.8z M109.6,188.6l-28-43.3
		c18.6-7.2,37.7-13.1,57.2-17.6c0.5-0.7,1.1-1.3,1.6-2l-5.8-7.8c-23.5,5.5-46.4,13.1-68.6,22.5L107,204
		C107.6,198.8,108.5,193.7,109.6,188.6L109.6,188.6z"/>
	<path class="st3" d="M328.4,134.3C355.9,97,376,69.8,376.6,69c2-2.7,4.1-3.1,7.4-2.6c3.9,0.6,10.9,2.4,15.6,3.6
		c0,0-26.9,36.4-62.3,84.4C334.7,147.6,331.7,140.9,328.4,134.3L328.4,134.3z M186.9,138.7C157.7,99.2,136,69.9,135.4,69
		c-2-2.7-4.1-3.1-7.4-2.6c-3.9,0.6-10.9,2.4-15.6,3.6c0,0,29.2,39.6,66.8,90.6C181.1,153.1,183.7,145.8,186.9,138.7L186.9,138.7z
		 M378.4,368.2c-16.9,0.6-24.6-3.3-35.3-17.8c-2-2.7-7.3-9.8-15-20.3c-4.7,4.4-9.9,8.2-15.5,11.4c15.7,21.3,26.7,36.2,29.7,40.2
		c11.3,15.3,16.3,17.9,31.9,17.9h68.7c5.2,0,7.9-1.5,10.1-6.7c2.2-5.2,12-28.5,12-28.5S398.7,367.4,378.4,368.2L378.4,368.2z
		 M183.3,331L169,350.3c-10.8,14.5-18.5,18.5-35.3,17.8c-20.3-0.8-86.6-3.8-86.6-3.8s9.8,23.3,12,28.5c2.2,5.2,4.9,6.7,10.1,6.7
		h68.7c15.6,0,20.6-2.7,31.9-17.9c3-4,14.2-19.2,30.2-40.9C194.6,337.9,189.1,334.7,183.3,331z"/>
	<path class="st2" d="M131.3,76l-18.9-5.9c4.7-1.3,11.7-3,15.6-3.6c3.3-0.5,5.4-0.1,7.4,2.6c0.6,0.9,22.3,30.2,51.4,69.7
		c-1.2,2.7-2.3,5.4-3.3,8.1L131.3,76z M332.1,141.9c28.1-38.1,48.6-65.9,48.6-65.9l18.9-5.9c-4.7-1.3-11.7-3-15.6-3.6
		c-3.3-0.5-5.4-0.1-7.4,2.6c-0.6,0.8-20.7,28-48.2,65.3C329.7,136.8,330.9,139.3,332.1,141.9L332.1,141.9z M183.3,331L169,350.3
		c-10.8,14.5-18.5,18.5-35.3,17.8c-20.3-0.8-86.5-3.8-86.6-3.8l20,8.8c0,0,53.8,2,69.6,2.4c16.5,0.4,26.3-4.7,38.1-20.3
		c1.4-1.9,6.8-9.2,15-20.3C187.5,333.7,185.4,332.3,183.3,331z M378.4,368.2c-16.9,0.6-24.6-3.3-35.3-17.8c-2-2.7-7.3-9.8-15-20.3
		c-1.8,1.7-3.8,3.4-5.8,4.9c8.2,11.1,13.6,18.3,15,20.3c11.7,15.6,21.5,20.7,38.1,20.3c15.8-0.4,69.6-2.4,69.6-2.4l20-8.8
		C464.9,364.3,398.7,367.4,378.4,368.2L378.4,368.2z"/>
	<path class="st3" d="M416.8,380.4c-0.5,6.6-0.9,12.4-0.9,19.1H410c0.6-3.8,2.6-14.9,4.2-20.4c0.5-1.8,0.9-2.8,1.9-2.6
		C417.2,376.7,416.9,378.2,416.8,380.4L416.8,380.4L416.8,380.4z M400,394c0.9,0.1,1.1-0.8,1.4-2.5c1.8-11.4,3.3-16.9,3.3-16.9
		l-0.1,0c-1.5,0.1-3,0.1-4.5,0.2c-0.8,5.3-1.2,10.6-1.1,15.9C399.1,392.7,399.4,393.9,400,394L400,394z M426.7,390.9
		c0,1.5,0.2,1.9,0.7,2c0.6,0.1,1-0.4,1.3-1.8c2.3-9.4,4.5-16,5.1-17.6c-1.6,0.1-3.2,0.1-5,0.2C428.1,377.5,426.9,384.7,426.7,390.9
		L426.7,390.9z M107.3,374.6c0,0,1.5,5.5,3.3,16.9c0.3,1.6,0.5,2.6,1.4,2.5c0.6,0,0.9-1.3,1-3.4c0.1-5.3-0.2-10.6-1.1-15.9
		C110.4,374.7,108.9,374.6,107.3,374.6L107.3,374.6L107.3,374.6z M84.5,392.9c0.5-0.1,0.8-0.5,0.7-2c-0.3-5.8-1-11.5-2.1-17.2
		c-1.8-0.1-3.5-0.1-5-0.2c0.6,1.6,2.7,8.2,5.1,17.6C83.6,392.5,83.9,393,84.5,392.9z M97.8,379.1c-0.5-1.8-0.9-2.8-1.9-2.6
		c-1.1,0.2-0.8,1.7-0.7,3.8c0.5,6.6,0.9,12.4,0.9,19.1h5.8C101.4,395.7,99.4,384.6,97.8,379.1L97.8,379.1z"/>
	<path class="st2" d="M121.3,375c0.8,4.7,2.4,14,3.8,24.5H102c-0.6-3.8-2.6-14.9-4.2-20.4c-0.5-1.8-0.9-2.8-1.9-2.6
		c-1.1,0.2-0.8,1.7-0.7,3.8c0.5,6.6,0.9,12.4,0.9,19.1H74.8c-3.5-12.9-6.2-21.6-7.8-26.4h0c0,0,4.4,0.2,11.1,0.4
		c0.6,1.7,2.8,8.2,5.1,17.6c0.4,1.4,0.7,1.9,1.3,1.8c0.5-0.1,0.8-0.5,0.7-2c-0.3-5.8-1-11.5-2.1-17.2c7.1,0.3,15.8,0.6,24.2,0.9
		l-0.1,0c0,0,1.5,5.5,3.3,16.9c0.3,1.6,0.5,2.6,1.4,2.5c0.6,0,0.9-1.3,1-3.4c0.1-5.3-0.2-10.6-1.1-15.9
		C115.2,374.8,118.3,374.9,121.3,375L121.3,375z M445,373.1l-11.1,0.4c-0.6,1.7-2.8,8.2-5.1,17.6c-0.4,1.4-0.7,1.9-1.3,1.8
		c-0.5-0.1-0.8-0.5-0.7-2c0.3-5.8,1-11.5,2.1-17.2c-7.1,0.3-15.8,0.6-24.2,0.9l0.1,0c0,0-1.5,5.5-3.3,16.9c-0.3,1.6-0.5,2.6-1.4,2.5
		c-0.6,0-0.9-1.3-1-3.4c-0.1-5.3,0.2-10.6,1.1-15.9c-3.3,0.1-6.5,0.2-9.4,0.3c-0.8,4.7-2.4,14-3.8,24.5H410
		c0.6-3.8,2.6-14.9,4.2-20.4c0.5-1.8,0.9-2.8,1.9-2.6c1.1,0.2,0.8,1.7,0.7,3.8c-0.5,6.6-0.9,12.4-0.9,19.1h21.3
		C440.7,386.6,443.4,377.9,445,373.1L445,373.1L445,373.1L445,373.1z M260.2,87.6c-35.1,0-74.1,53.2-74.1,99.3
		c0,19.1,6.7,28.4,18,25.6c-1.8-6.6-0.2-14.1,4.8-19.1c-2.5,11.7,4.7,20.8,16.3,20.3c19.7-1,36.7-30.6,68-30.6
		c9,0,17.3,3.8,20.9,10.1c0,0-4.3-2.3-14.3-2.3c-3.4,0-6.8,0.4-10.1,1.2c4.9,34.9-32.9,49.9-54.3,32.3c-3.6,1.5-7.5,2.3-11.4,2.3
		c-6.2,0-11-2-14.5-5.1c-12,16.3-27.5,29.7-45.3,39.3c17.2,9.8,31.8,22.9,40.4,36.9c-46.9-31-76.2-42.8-100.4-42.8
		c-18.1,0-28.2,6.6-28.2,17.5c0,8.6,6.3,17.6,16,24.5c14.9,10,37.2,15,55.1,9.5c-22.6-18-36.5-26.9-50.2-32.2
		c51.5-0.7,88.9,69.7,160.1,69.7c28.8,0,56.2-11.5,70.5-30c11.2-14.4,16.3-35.3,16.3-64C343.8,167.4,303.1,87.6,260.2,87.6
		L260.2,87.6L260.2,87.6z M212.4,172.6c-0.5,4.9-3.3,8.7-6.5,8.4s-5.2-4.5-4.8-9.4c0.5-4.9,3.3-8.7,6.5-8.4
		C210.7,163.5,212.9,167.7,212.4,172.6z M222.3,141.9c-2.3,4.4-6.5,6.7-9.3,5.2c-2.9-1.5-3.4-6.3-1.1-10.6c2.3-4.4,6.5-6.7,9.3-5.2
		C224.1,132.7,224.6,137.5,222.3,141.9z M236,179.6c-2,4.5-5.9,7.2-8.9,5.9c-2.9-1.3-3.7-6-1.7-10.5c2-4.5,5.9-7.2,8.9-5.9
		C237.2,170.4,237.9,175.1,236,179.6L236,179.6z M232.3,118.6c-2.2-2.4-1.1-7,2.6-10.4c3.6-3.3,8.4-4.1,10.6-1.7
		c2.2,2.4,1.1,7-2.6,10.4C239.2,120.2,234.5,121,232.3,118.6L232.3,118.6z M255.3,153c-3.5,3.4-8.2,4.4-10.5,2
		c-2.3-2.3-1.2-7,2.3-10.4c3.5-3.4,8.2-4.4,10.5-2C259.9,144.9,258.9,149.6,255.3,153z M282.9,135.1c-4.5,2-9.2,1.3-10.6-1.7
		c-1.4-3,1.2-7,5.7-9.1c4.5-2,9.2-1.3,10.6,1.7C289.9,129,287.4,133.1,282.9,135.1L282.9,135.1z M209.7,264c-3.2,0.8-6.7-2.4-8-7.2
		c-1.2-4.8,0.3-9.3,3.5-10.1c3.2-0.8,6.7,2.4,8,7.2C214.4,258.6,212.8,263.1,209.7,264z M224.2,292c-2.7,1.7-7.1-0.3-9.7-4.4
		c-2.6-4.2-2.5-9,0.2-10.7c2.7-1.7,7.1,0.3,9.7,4.4C227.1,285.5,227,290.3,224.2,292z M225,245.8c-2.3-4.4-1.8-9.1,1.1-10.7
		c2.9-1.5,7.1,0.8,9.4,5.1c2.3,4.4,1.8,9.1-1.1,10.7C231.5,252.4,227.3,250.1,225,245.8L225,245.8z M248,315.4
		c-2,2.5-6.8,1.9-10.6-1.2c-3.8-3.1-5.2-7.7-3.2-10.1c2-2.5,6.8-1.9,10.6,1.2C248.6,308.4,250,312.9,248,315.4L248,315.4z
		 M253.4,272.5c-2.3,2.3-7,1.4-10.5-2.1c-3.5-3.5-4.5-8.2-2.2-10.5c2.3-2.3,7-1.4,10.5,2.1C254.7,265.5,255.6,270.2,253.4,272.5
		L253.4,272.5z M278.9,289c-1.5,3-6.3,3.7-10.7,1.5c-4.4-2.2-6.8-6.4-5.3-9.5c1.5-3,6.3-3.7,10.7-1.5C278,281.7,280.4,286,278.9,289
		L278.9,289z M284.4,254.1c-4.5,2-9.3,1-10.6-2.1c-1.3-3.1,1.2-7.2,5.8-9.2c4.5-2,9.3-1,10.6,2.1C291.5,248,288.9,252.1,284.4,254.1
		L284.4,254.1z M309.3,299.3c-0.8,3.3-5.3,5-10.1,3.8c-4.8-1.2-8-4.8-7.2-8.1c0.8-3.3,5.3-5,10.1-3.8
		C306.8,292.4,310.1,296,309.3,299.3L309.3,299.3z M316.2,244c-4.9,0.9-9.3-1.2-9.9-4.5c-0.6-3.4,2.8-6.8,7.7-7.7
		c4.9-0.9,9.3,1.1,9.9,4.5C324.5,239.7,321,243.2,316.2,244L316.2,244z M170.5,244.6c-3.3-13.5-0.3-23.8,10.3-31.3
		c3.2,6,7.9,9.4,13.7,10C187.5,231.5,179.4,238.7,170.5,244.6L170.5,244.6z"/>
	<path class="st0" d="M259.6,77c-39.6,0-83.8,56.2-83.8,110.8c-0.1,5.1,0.4,10.2,1.4,15.1c-16.7,10.5-22.7,27.8-17.1,48.1
		c-2.4,1.4-4.9,2.7-7.5,4c-13.8-4.6-22.3-6.5-34.2-8c-15.2-1.7-31.4-0.1-41.3,7c-2.9,2-5.3,4.7-7,7.9c-1.6,3.3-2.5,6.9-2.4,10.6
		c0,4.4,1,8.8,2.9,12.8c2.6,5.4,6.7,10.3,11.9,14.6c7.3,6.4,17,11.5,27.9,14.6c13.3,3.7,32.2,3.2,47-1.3c1.1,0.7,2.3,1.4,3.6,2.2
		c38.5,29,64.7,39.8,96,39.8c34,0,63.9-13,80.1-35.4c11.4-15.7,17.9-38.4,17.5-70.4C353.6,159.6,310.9,77,259.6,77L259.6,77
		L259.6,77z M180.8,213.3c3.2,6,7.8,9.4,13.7,10c-7,8.2-15,15.3-24,21.2C167.2,231.1,170.1,220.8,180.8,213.3z M327.5,314.2
		c-14.3,18.4-41.6,30-70.5,30c-71.2,0-108.5-70.4-160.1-69.7c13.7,5.3,27.6,14.2,50.2,32.2c-17.8,5.5-40.2,0.5-55.1-9.5
		c-9.7-6.9-16-15.9-16-24.5c0-10.8,10.1-17.5,28.2-17.5c15.7,0,33.6,5,57.1,17c12.7,6.5,26.9,15,43.3,25.8
		c-8.6-14.1-23.2-27.2-40.4-36.9c17.8-9.6,33.3-23,45.3-39.3c3.4,3.1,8.2,5.1,14.5,5.1c3.9,0,7.8-0.8,11.4-2.3
		c21.4,17.6,59.3,2.6,54.3-32.3c3.3-0.8,6.7-1.2,10.1-1.2c10,0,14.3,2.3,14.3,2.3c-3.7-6.3-11.9-10.1-20.9-10.1
		c-31.3,0-48.3,29.6-68,30.6c-11.6,0.6-18.7-8.6-16.3-20.3c-5,4.9-6.6,12.4-4.8,19.1c-11.3,2.8-18-6.5-18-25.6
		c0-46.1,39-99.3,74.1-99.3c42.9,0,83.6,79.8,83.6,162.5C343.8,278.8,338.7,299.7,327.5,314.2L327.5,314.2z"/>
	<path class="st3" d="M261.9,219.6c-5.6,2.3-11.3,1.8-15.5-1c8.9-6,17.7-14,27.7-19.9C275.8,206.9,270.5,216,261.9,219.6
		L261.9,219.6z"/>
	<path class="st0" d="M212.4,172.6c-0.5,4.9-3.3,8.7-6.5,8.4c-3.1-0.3-5.2-4.5-4.8-9.4c0.5-4.9,3.3-8.7,6.5-8.4
		C210.7,163.5,212.9,167.7,212.4,172.6z M221.2,131.2c-2.9-1.5-7.1,0.8-9.3,5.2c-2.3,4.4-1.8,9.1,1.1,10.6c2.9,1.5,7.1-0.8,9.3-5.2
		C224.6,137.5,224.1,132.7,221.2,131.2L221.2,131.2z M245.4,106.5c-2.2-2.4-6.9-1.6-10.6,1.7c-3.6,3.3-4.8,8-2.6,10.4
		c2.2,2.4,6.9,1.6,10.6-1.8C246.5,113.5,247.6,108.9,245.4,106.5z M234.3,169.2c-2.9-1.3-6.9,1.4-8.9,5.9c-2,4.5-1.2,9.2,1.7,10.5
		c2.9,1.3,6.9-1.4,8.9-5.9C238,175.1,237.2,170.4,234.3,169.2L234.3,169.2z M257.7,142.6c-2.3-2.3-7-1.4-10.5,2
		c-3.5,3.4-4.6,8.1-2.3,10.4c2.3,2.3,7,1.4,10.5-2C258.9,149.6,259.9,144.9,257.7,142.6z M288.6,126.1c-1.4-3-6.1-3.7-10.6-1.7
		c-4.5,2-7,6.1-5.7,9.1c1.4,3,6.1,3.7,10.6,1.7C287.4,133.1,289.9,129,288.6,126.1z M234.2,304c-2,2.5-0.6,7,3.2,10.1
		c3.8,3.1,8.5,3.7,10.6,1.2s0.6-7-3.2-10.1C241,302.1,236.2,301.5,234.2,304z M214.7,276.9c-2.7,1.7-2.8,6.5-0.2,10.7
		c2.6,4.2,7,6.2,9.7,4.4c2.7-1.7,2.8-6.5,0.2-10.7C221.8,277.2,217.5,275.2,214.7,276.9z M205.2,246.7c-3.2,0.8-4.7,5.4-3.5,10.1
		c1.2,4.8,4.8,8,8,7.2c3.2-0.8,4.7-5.4,3.5-10.1C211.9,249.1,208.3,245.9,205.2,246.7L205.2,246.7z M262.9,281.1
		c-1.5,3,0.9,7.3,5.3,9.5c4.4,2.2,9.2,1.5,10.7-1.5c1.5-3-0.9-7.3-5.3-9.5C269.2,277.3,264.4,278,262.9,281.1L262.9,281.1z
		 M291.9,295c-0.8,3.3,2.4,6.9,7.2,8.1c4.8,1.2,9.3-0.5,10.1-3.8c0.8-3.3-2.4-6.9-7.2-8.1C297.2,290,292.7,291.7,291.9,295
		L291.9,295z M240.7,259.9c-2.3,2.3-1.3,7,2.2,10.5c3.5,3.5,8.2,4.4,10.5,2.1c2.3-2.3,1.3-7-2.2-10.5
		C247.6,258.6,243,257.6,240.7,259.9L240.7,259.9z M226.1,235.1c-2.9,1.5-3.4,6.3-1,10.7c2.3,4.4,6.5,6.7,9.4,5.1
		c2.9-1.5,3.4-6.3,1-10.7C233.2,235.9,229,233.6,226.1,235.1L226.1,235.1z M290.1,244.9c-1.3-3.1-6.1-4-10.6-2.1
		c-4.5,2-7.1,6.1-5.8,9.2c1.3,3.1,6.1,4,10.6,2.1C288.9,252.1,291.5,248,290.1,244.9z M323.9,236.3c-0.6-3.4-5-5.4-9.9-4.5
		c-4.9,0.9-8.3,4.3-7.7,7.7c0.6,3.4,5,5.4,9.9,4.5C321,243.2,324.5,239.7,323.9,236.3L323.9,236.3z"/>
	<path class="st1" d="M92.1,297.1c14.9,10,37.2,15,55.1,9.5c-22.6-18-36.5-26.9-50.2-32.2c-10,0.2-16.8,5.7-12.9,15.6
		C86.5,292.7,89.2,295,92.1,297.1L92.1,297.1z M257,344.1c28.8,0,56.2-11.5,70.5-30c11.2-14.4,16.3-35.3,16.3-64
		c0-43.5-11.2-86.1-28.2-116.8c1.3,3,2.6,5.9,4,8.9c19,41.6,30.5,128.2-0.3,166.1c-24.8,30.5-92.4,41.3-154.2-2.4
		C191,324.3,219.2,344.1,257,344.1L257,344.1z M286.4,174.9c-28,0.7-47.3,27.9-62.7,29.5c-7.6,0.8-13.1-3.6-14.7-10.9
		c-2.5,11.7,4.7,20.8,16.3,20.3c19.7-1,36.7-30.6,68-30.6c9,0,17.3,3.8,20.9,10.1C311.1,183.9,301.4,174.5,286.4,174.9L286.4,174.9z
		 M204.1,212.6c-10.9,2.7-17.6-5.9-18-23.7c1.6,14.4,11.3,16.5,17.7,14.3C203.2,206.3,203.3,209.5,204.1,212.6z"/>
</g>
</svg>
