<?xml version="1.0" encoding="utf-8"?>
<!-- Generator: Adobe Illustrator 26.0.2, SVG Export Plug-In . SVG Version: 6.00 Build 0)  -->
<svg version="1.1" id="Layer_1" xmlns="http://www.w3.org/2000/svg" xmlns:xlink="http://www.w3.org/1999/xlink" x="0px" y="0px"
	 viewBox="0 0 512 512" style="enable-background:new 0 0 512 512;" xml:space="preserve">
<style type="text/css">
	.st0{fill:#010101;}
	.st1{fill:#FFFFFF;}
	.st2{fill:#A2AAAD;}
	.st3{fill-rule:evenodd;clip-rule:evenodd;fill:#A2AAAD;}
</style>
<g>
	<path class="st0" d="M358.5,312.9V338c0,8.8-1.6,11.5-9.6,15.5L256,399.5l-92.9-46.1c-8-4-9.6-6.7-9.6-15.5v-25.1H31l53.6-159.4
		h68.9v-41h204.9v41H481l-53.6,159.4H358.5L358.5,312.9z"/>
	<path class="st1" d="M256,388.4l86.4-42.5c5.1-2.5,6.3-4.8,6.3-10v-32.7h71.7l47-139.8H348.7v-41H163.3v41H91.6l-47,139.8h118.7
		v32.7c0,5.3,1.1,7.5,6.3,10L256,388.4L256,388.4z"/>
	<path class="st2" d="M256,381.1l80.8-39.7c4.3-2.1,5.3-4,5.3-8.6v-36.2h73.6l42.6-126.7H342.1v-41H169.9v41H96.3L53.7,296.5h116.2
		v36.2c0,4.6,1,6.5,5.3,8.6L256,381.1L256,381.1z"/>
	<path class="st1" d="M258.7,296.2c0.7,0,0.9,0.4,0.9,0.8v1.1h0.7c0.8,0,1.1,0.6,1.1,1.3v5c1.7-1,3.4-0.3,4,0.3
		c1.5-0.9,3.7-0.6,4.8,0.7c1.6-0.7,3.8-0.3,5.1,1.4c1.7-0.5,3.9,0.2,5.1,2.2c2.5-0.4,4.6,1.2,5.2,3.2c2.8-0.2,5.1,2,5.4,4.4
		c2.8,0.3,4.9,2.8,4.8,5.7c2.2,1,3.5,3,3.5,5.4c0,2.7-1.5,5-4.6,5.7c-0.7,0.2-1.1,0.2-1.4,0.6c1,0.3,1.6,1.5,1.3,2.5
		c-0.1,0.5-2.1,5.9-2.1,5.9c-0.5,1.4-1.3,2.1-2.7,1.7c-1.3-0.4-1.8-0.2-2.7,1.3c-0.7,1.1-1.3,2-1.8,2.9c-1.6,2.6-3.1,5.1-4,6.3
		c-0.9,1.2-1.5,1.6-2.3,2.1c-4.6,2.6-14.2,4.5-23.1,4.5s-18.4-1.9-23.1-4.5c-0.9-0.5-1.5-0.9-2.3-2.1c-0.8-1.3-2.3-3.8-4-6.3
		c-0.6-0.9-1.1-1.8-1.8-2.9c-0.9-1.4-1.4-1.6-2.7-1.3c-1.4,0.4-2.3-0.3-2.7-1.7c0,0-1.9-5.4-2.1-5.9c-0.3-1,0.3-2.2,1.3-2.5
		c-0.3-0.4-0.7-0.4-1.4-0.6c-3.1-0.7-4.6-3-4.6-5.7c0-2.4,1.3-4.4,3.5-5.4c-0.2-2.9,1.9-5.4,4.8-5.7c0.3-2.4,2.5-4.6,5.4-4.4
		c0.6-2,2.7-3.5,5.2-3.2c1.2-2,3.4-2.7,5.1-2.2c1.3-1.7,3.5-2.1,5.1-1.4c1.2-1.3,3.3-1.6,4.8-0.7c0.6-0.5,2.3-1.3,4-0.3v-5
		c0-0.7,0.3-1.3,1.1-1.3h0.7v-1.1c0-0.5,0.2-0.8,0.9-0.8H258.7L258.7,296.2z"/>
	<path class="st3" d="M294.3,323.2c0.7-2.1-0.5-4.5-2.6-5.2c-0.4-0.1-0.9-0.2-1.3-0.2c-0.2,0-0.3,0-0.5,0c0-0.2,0-0.4,0-0.6
		c0-2.1-1.7-3.9-3.9-3.9c-0.4,0-0.7,0-1,0.1v-0.1c0-2-1.6-3.6-3.6-3.6c0,0,0,0,0,0c-0.5,0-1,0.1-1.5,0.3c-0.3-1.6-1.7-2.9-3.4-2.9
		c-0.6,0-1.2,0.2-1.7,0.5c-0.7-1.7-2.6-2.5-4.2-1.8c-0.3,0.1-0.6,0.3-0.8,0.5c-0.5-1-1.5-1.5-2.6-1.5c-0.8,0-1.6,0.3-2.1,0.9
		c-0.5-0.7-1.3-1.1-2.2-1.1c-1.2,0-2.2,0.8-2.5,1.9c-1.2-0.2-1.6-0.8-1.6-1.6c0-0.3,0.1-0.4,0.4-0.4h0.2c0.6,0,1-0.5,1-0.9v-3.9
		c0-0.7-0.3-1.2-1-1.2h-0.6v-0.8c0-0.4-0.2-0.8-0.8-0.8H254c-0.6,0-0.8,0.3-0.8,0.8v0.8h-0.6c-0.8,0-1,0.5-1,1.2v3.9
		c0,0.4,0.4,0.9,1,0.9h0.2c0.3,0,0.4,0,0.4,0.4c0,0.8-0.4,1.3-1.6,1.6c-0.3-1.1-1.3-1.9-2.5-1.9c-0.9,0-1.7,0.4-2.2,1.1
		c-0.6-0.6-1.3-0.9-2.1-0.9c-1.1,0-2.1,0.6-2.6,1.5c-0.6-0.5-1.3-0.7-2-0.7c-1.3,0-2.5,0.8-3,2c-0.5-0.3-1.1-0.5-1.7-0.5
		c-1.7,0-3.1,1.2-3.4,2.9c-0.5-0.2-1-0.3-1.5-0.3c-2,0-3.6,1.6-3.6,3.6v0.1c-2.1-0.6-4.2,0.6-4.8,2.7c-0.1,0.3-0.1,0.7-0.1,1
		c0,0.2,0,0.4,0,0.6c-0.2,0-0.3,0-0.5,0c-2.3,0-4.1,1.8-4.1,4.1c0,0.4,0.1,0.9,0.2,1.3c-2.3,0.2-4,2.1-4,4.4c0,2.1,1.5,4,3.6,4.4
		c1.2,0.2,2.2,0.3,2.7,1.5c0.1,0.3,0.3,0.7,0.4,1.2l-0.8,0.3c-1.2,0.5-1.5,1.5-1.2,2.5l1.2,3.4c0.5,1.4,1.2,2.2,2.6,1.8
		c1.3-0.4,1.8-0.5,2.3,0.4c1.4,2.7,2.4,4.1,4.4,4.1c-1.3,0.9-1.3,1.1-0.1,2.9l2.3,3.5c0.8,1.2,1.1,1.5,2,2.1
		c4.5,2.6,13.9,4.5,22.9,4.5c9,0,18.4-1.9,22.9-4.5c0.8-0.5,1.2-0.8,2-2.1l2.3-3.5c1.2-1.7,1.2-2-0.1-2.9c1.9,0,3-1.4,4.4-4.1
		c0.5-0.9,0.9-0.7,2.3-0.4c1.4,0.4,2.1-0.4,2.6-1.8l1.2-3.4c0.4-1,0-2-1.2-2.5l-0.8-0.3c0.2-0.5,0.3-0.9,0.4-1.2
		c0.4-1.2,1.5-1.2,2.7-1.5c2.1-0.4,3.6-2.2,3.6-4.4C298.3,325.3,296.5,323.4,294.3,323.2"/>
	<path class="st0" d="M254.2,303.2v0.9c0,0.3,0.3,0.6,0.6,0.6h2.4c0.3,0,0.6-0.3,0.6-0.6v-0.9h1c0.3,0,0.6-0.3,0.6-0.6v-2.4
		c0-0.3-0.3-0.6-0.6-0.6h-1v-1c0-0.3-0.2-0.6-0.6-0.6h-2.4c-0.4,0-0.6,0.3-0.6,0.6v1h-0.9c-0.3,0-0.6,0.3-0.6,0.6v2.4
		c0,0.3,0.3,0.6,0.6,0.6L254.2,303.2L254.2,303.2z M233.8,352.9c6.5-3.6,16.8-4.6,22.2-4.6c5.4,0,15.8,1,22.2,4.6
		c1.1,0.6,1.2,0.6,2-0.5l1.8-2.7c0.6-0.9,0.5-1.6-0.2-2c-2.4-1.4-6-2.8-9.5-3.7c-5.1-1.3-10.6-2-16.4-2c-5.8,0-11.3,0.7-16.4,2
		c-3.5,0.9-7.1,2.3-9.5,3.7c-0.7,0.4-0.8,1.1-0.2,2l1.8,2.7C232.6,353.6,232.6,353.6,233.8,352.9"/>
	<path class="st0" d="M254.9,324.4c-0.9,0-1.6,0.7-1.6,1.6c0,0,0,0,0,0v1.5h-1.1c-0.9,0-1.6,0.7-1.6,1.6c0,0,0,0,0,0v2.2
		c0,0.8,0.6,1.6,1.4,1.6c2.1,0,2.2,1,2.2,2.1s-1,2.1-2.2,2.1c-0.5,0-1-0.2-1.4-0.5c-0.1-0.1-0.2-0.1-0.3,0c-0.4,0.5-1.1,0.8-1.8,0.8
		c-0.5,0-1-0.2-1.4-0.5c-0.1-0.1-0.2,0-0.2,0c-0.3,0.4-0.8,0.6-1.2,0.7c-1.2,0.3-2.4-0.5-2.6-1.5c-0.2-1.1-0.1-2.1,1.7-2.5
		c0.8-0.2,1.2-1.1,1.1-1.9l-0.5-2.1c-0.2-0.9-1.1-1.4-1.9-1.2l-1.1,0.2l-0.3-1.5c-0.2-0.9-1.1-1.4-1.9-1.2l-2.1,0.5
		c-0.9,0.2-1.4,1.1-1.2,1.9l0.3,1.5l-1,0.2c-0.9,0.2-1.4,1.1-1.2,1.9l0.5,2.1c0.2,0.8,1,1.4,1.8,1.2c2-0.5,2.4,0.5,2.6,1.5
		c0.2,1-0.6,2.3-1.7,2.5c-0.7,0.2-1.5,0-2-0.5c-0.1-0.1-0.2-0.1-0.3,0c-0.3,0.5-0.7,0.9-1.4,1.1c-0.5,0.1-1,0.1-1.5-0.1
		c-0.2-0.1-0.3,0-0.3,0.1c-0.2,0.7-0.7,1.3-1.4,1.6c-1,0.4-2.1-0.2-2.5-1.2c-0.5-1.1-0.7-1.9,1.1-2.7c0.7-0.3,1-1.2,0.7-2l-0.8-2
		c-0.3-0.8-1.1-1.3-1.9-1l-1.4,0.5l-0.4-1.2c-0.3-1-1-1.3-2-0.9l-2.2,0.8c-0.6,0.3-1,0.9-0.6,1.7c0.2,0.6,0.4,1,0.5,1.3l-1.3,0.5
		c-0.8,0.3-1.2,1.1-0.8,1.9l0.9,2.3c0.3,0.8,1.2,1.2,2.1,0.9c1.5-0.5,1.8-0.1,2.8,1.6c1.1,2,2.8,3.1,5,3.1c2.2,0,4-1.2,4.9-3
		c1.1,0.5,2.4,0.6,3.6,0.4c1.4-0.3,2.7-1.2,3.5-2.4c1.3,0.8,2.8,1,4.2,0.7c1-0.2,1.9-0.7,2.6-1.4c0.9,0.5,1.9,0.8,2.9,0.8
		c1.5,0,2.9-0.6,3.9-1.6c1.1,1,2.5,1.6,3.9,1.6c1.1,0,2-0.3,2.9-0.8c0.7,0.7,1.6,1.2,2.6,1.4c1.5,0.3,3,0,4.2-0.7
		c0.8,1.2,2.1,2.1,3.5,2.4c1.3,0.3,2.5,0.1,3.6-0.4c0.9,1.8,2.8,3,4.9,3c2.1,0,4.1-1.2,5-3.1c1-1.8,1.3-2.2,2.8-1.6
		c0.9,0.3,1.8,0,2.1-0.9l0.9-2.3c0.3-0.8,0-1.6-0.8-1.9l-1.3-0.5c0.1-0.3,0.3-0.7,0.5-1.3c0.3-0.8,0-1.5-0.6-1.7l-2.2-0.8
		c-1-0.4-1.7-0.1-2,0.9l-0.4,1.2l-1.4-0.5c-0.8-0.3-1.6,0.1-1.8,1l-0.8,2c-0.3,0.8,0,1.7,0.7,2c1.8,0.8,1.7,1.5,1.1,2.7
		c-0.4,1-1.5,1.6-2.5,1.2c-0.7-0.3-1.3-0.9-1.4-1.6c0-0.2-0.1-0.2-0.3-0.1c-0.5,0.2-1,0.3-1.5,0.1c-0.6-0.2-1.1-0.6-1.4-1.1
		c-0.1-0.1-0.2-0.1-0.3,0c-0.5,0.5-1.3,0.7-2,0.5c-1.2-0.3-1.9-1.5-1.7-2.5c0.2-1.1,0.6-2,2.6-1.5c0.8,0.2,1.6-0.4,1.8-1.2l0.5-2.1
		c0.2-0.9-0.3-1.7-1.2-1.9c0,0,0,0,0,0l-1-0.2l0.3-1.5c0.2-0.9-0.3-1.7-1.2-1.9l-2.1-0.5c-0.9-0.2-1.7,0.4-1.9,1.2l-0.3,1.5
		l-1.1-0.2c-0.9-0.2-1.7,0.3-1.9,1.2c0,0,0,0,0,0l-0.5,2.1c-0.2,0.8,0.3,1.7,1.1,1.9c1.8,0.4,2,1.4,1.7,2.5
		c-0.2,1.1-1.5,1.8-2.6,1.5c-0.5-0.1-0.9-0.4-1.2-0.7c-0.1-0.1-0.2-0.1-0.2,0c-0.4,0.3-0.9,0.5-1.4,0.5c-0.7,0-1.3-0.3-1.8-0.8
		c-0.1-0.1-0.2-0.1-0.2,0c-0.4,0.3-0.9,0.5-1.4,0.5c-1.2,0-2.2-1-2.2-2.1s0.2-2.1,2.2-2.1c0.8,0,1.4-0.8,1.4-1.6v-2.2
		c0-0.9-0.7-1.6-1.6-1.6c0,0,0,0,0,0h-1.1V326c0-0.9-0.7-1.6-1.6-1.6c0,0,0,0,0,0L254.9,324.4L254.9,324.4L254.9,324.4z M256,358
		c9.2,0,17.1-1.7,21.7-3.7c-2.1-1.2-4.3-2-7.3-2.7c-3.8,0.6-9.4,1.3-14.4,1.3c-5,0-10.6-0.8-14.4-1.3c-3.1,0.7-5.2,1.5-7.3,2.7
		C238.9,356.3,246.8,358,256,358 M268,313.8c0-0.8-0.7-1.5-1.5-1.5c-0.8,0-1.5,0.7-1.5,1.5c0,0,0,0,0,0c0,0.8,0.7,1.5,1.5,1.5
		C267.4,315.3,268,314.6,268,313.8z M261,309.8c0-0.7-0.6-1.2-1.3-1.2c-0.7,0-1.2,0.6-1.2,1.2c0,0.7,0.6,1.2,1.3,1.2
		C260.5,311,261,310.5,261,309.8z M264.3,311.7c0-0.7-0.5-1.3-1.2-1.3c-0.7,0-1.3,0.5-1.3,1.2c0,0,0,0,0,0.1c0,0.7,0.6,1.2,1.3,1.2
		C263.7,312.9,264.3,312.4,264.3,311.7z M272.4,317.1c0-1-0.8-1.9-1.9-1.9c-1,0-1.9,0.8-1.9,1.9s0.8,1.9,1.9,1.9l0,0
		C271.5,318.9,272.4,318.1,272.4,317.1C272.4,317.1,272.4,317.1,272.4,317.1z M276.8,321.7c0-1.2-1-2.2-2.2-2.2s-2.2,1-2.2,2.2
		c0,1.2,1,2.2,2.2,2.2S276.8,322.9,276.8,321.7L276.8,321.7z"/>
	<path class="st0" d="M281.3,327.2c0-1.4-1.1-2.5-2.5-2.5c-1.4,0-2.5,1.1-2.5,2.5s1.1,2.5,2.5,2.5
		C280.2,329.8,281.3,328.6,281.3,327.2z M273.3,308.6c0-1-0.8-1.8-1.8-1.8c-1,0-1.8,0.8-1.8,1.8c0,0,0,0,0,0c0,1,0.9,1.8,1.9,1.7
		C272.6,310.4,273.3,309.6,273.3,308.6z M278.3,310.5c0-1.1-1-2-2.1-2c-1.1,0-2,1-2,2.1c0,1.1,1,2,2.1,2l0,0
		C277.5,312.5,278.4,311.6,278.3,310.5C278.3,310.5,278.3,310.5,278.3,310.5 M283.4,313.2c0-1.2-1.1-2.2-2.3-2.1
		c-1.2,0-2.2,1.1-2.1,2.3c0,1.2,1.1,2.2,2.3,2.1C282.4,315.5,283.4,314.4,283.4,313.2C283.4,313.2,283.4,313.2,283.4,313.2z
		 M264.1,307.3c0-0.8-0.6-1.4-1.4-1.4c-0.8,0-1.4,0.6-1.4,1.4c0,0.8,0.6,1.4,1.4,1.4C263.5,308.7,264.1,308,264.1,307.3L264.1,307.3
		z M268.6,307.5c0-0.9-0.7-1.6-1.6-1.6c-0.9,0-1.6,0.7-1.6,1.6c0,0.9,0.7,1.6,1.6,1.6C267.9,309.1,268.6,308.4,268.6,307.5
		 M288.2,316.9c0-1.3-1.1-2.4-2.4-2.4c-1.3,0-2.4,1.1-2.4,2.4c0,0,0,0,0,0c0,1.3,1.1,2.4,2.4,2.4c0,0,0,0,0,0
		C287.2,319.3,288.2,318.2,288.2,316.9C288.2,316.9,288.2,316.9,288.2,316.9z M292.8,321.5c0-1.4-1.2-2.6-2.6-2.6
		c-1.4,0-2.6,1.2-2.6,2.6l0,0c0,1.4,1.2,2.6,2.6,2.6c0,0,0,0,0,0C291.6,324.1,292.8,322.9,292.8,321.5
		C292.8,321.5,292.8,321.5,292.8,321.5z M296.6,327.1c0-1.5-1.3-2.8-2.8-2.7c0,0,0,0,0,0c-1.5,0-2.8,1.3-2.7,2.8
		c0,1.5,1.3,2.8,2.8,2.8C295.3,329.8,296.6,328.6,296.6,327.1z M268.7,327.3c0.2-1.9,0.9-2.6,2.4-2.4c0.1,0,0.2-0.1,0.2-0.2
		c-1.1-3.6-6.3-10.4-12.7-13.4c-0.4-0.2-0.7-0.3-0.7-0.2c-0.1,0.1,0.1,0.3,0.4,0.6c6.1,5.3,7.3,13.6,7.4,16.2c0,0.2,0.2,0.2,0.3,0.1
		C266,328,266.7,326.7,268.7,327.3"/>
	<path class="st0" d="M264,310c9.3,3,18.6,12.2,20.4,21.5c0,0.2,0.3,0.2,0.3,0c0.2-0.5,0.3-0.9,0.5-1.3c0.3-0.6,1.2-0.8,1.9-0.6
		c1.1,0.4,2.7,1,3.5,1.3c0.2,0.1,0.3-0.1,0.3-0.2c-4.4-11.5-17-19.8-26.9-21.2c-0.5-0.1-0.8-0.1-0.8,0
		C263.2,309.7,263.3,309.8,264,310L264,310z M243.3,327.3c1.9-0.6,2.6,0.6,2.6,0.6c0.1,0.1,0.3,0.1,0.3-0.1
		c0.1-2.6,1.4-10.9,7.4-16.2c0.3-0.3,0.5-0.5,0.4-0.6c-0.1-0.1-0.3,0.1-0.7,0.2c-6.4,2.9-11.6,9.8-12.7,13.4c0,0.1,0.1,0.3,0.2,0.2
		C242.4,324.7,243.1,325.5,243.3,327.3 M248,310c0.6-0.2,0.8-0.2,0.8-0.4c0-0.1-0.3-0.1-0.8,0c-9.9,1.4-22.5,9.8-26.9,21.2
		c-0.1,0.2,0.1,0.3,0.3,0.2c0.8-0.3,2.4-1,3.5-1.3c0.7-0.2,1.6,0,1.9,0.6c0.2,0.4,0.3,0.7,0.5,1.3c0.1,0.2,0.3,0.1,0.3,0
		C229.4,322.2,238.8,312.9,248,310L248,310z M258.8,320.6c0-1.6-1.3-2.8-2.8-2.8c-1.6,0-2.8,1.3-2.8,2.8c0,1.6,1.3,2.8,2.8,2.8
		C257.6,323.4,258.8,322.1,258.8,320.6z M257.3,311.8c0-0.7-0.6-1.4-1.4-1.4c-0.8,0-1.4,0.6-1.4,1.4c0,0.7,0.6,1.4,1.4,1.4
		C256.7,313.1,257.3,312.5,257.3,311.8C257.3,311.8,257.3,311.8,257.3,311.8L257.3,311.8z M257.6,315.4c0-0.9-0.7-1.7-1.7-1.7
		c-0.9,0-1.7,0.7-1.7,1.7c0,0.9,0.7,1.7,1.7,1.7S257.6,316.3,257.6,315.4L257.6,315.4z M257.9,307.9c0-1.1-0.9-1.9-1.9-1.9
		c-1.1,0-1.9,0.9-1.9,1.9c0,1.1,0.9,1.9,1.9,1.9C257,309.8,257.9,308.9,257.9,307.9z M265.3,334.2c0-1-0.8-1.8-1.8-1.8
		s-1.8,0.8-1.8,1.8c0,1,0.8,1.8,1.8,1.8S265.3,335.2,265.3,334.2z M280.3,337c0-1-0.8-1.8-1.8-1.8s-1.8,0.8-1.8,1.8s0.8,1.8,1.8,1.8
		S280.3,338,280.3,337z M246.7,334.2c0,1,0.8,1.8,1.8,1.8s1.8-0.8,1.8-1.8s-0.8-1.8-1.8-1.8S246.7,333.2,246.7,334.2z M231.7,337
		c0,1,0.8,1.8,1.8,1.8s1.8-0.8,1.8-1.8s-0.8-1.8-1.8-1.8S231.7,336,231.7,337z M240.4,310.5c1,0,1.8-0.7,1.9-1.7
		c0-1-0.7-1.8-1.7-1.9c0,0,0,0,0,0c-1,0-1.8,0.8-1.8,1.8C238.7,309.6,239.4,310.4,240.4,310.5z M235.6,312.6c1.1,0,2.1-0.8,2.1-2
		c0,0,0,0,0,0c0-1.1-0.8-2.1-2-2.1c0,0,0,0,0,0c-1.1,0-2.1,0.8-2.1,2C233.6,311.6,234.5,312.5,235.6,312.6
		C235.6,312.6,235.6,312.6,235.6,312.6"/>
	<path class="st0" d="M230.8,315.5c1.2,0,2.2-0.9,2.3-2.1s-0.9-2.2-2.1-2.3l0,0c-1.2,0-2.2,0.9-2.3,2.1
		C228.6,314.4,229.6,315.5,230.8,315.5z M249.2,308.7c0.8,0,1.4-0.6,1.4-1.4c0-0.8-0.6-1.4-1.4-1.4c0,0,0,0,0,0
		c-0.8,0-1.4,0.6-1.4,1.4c0,0,0,0,0,0C247.9,308,248.5,308.7,249.2,308.7C249.2,308.7,249.2,308.7,249.2,308.7z M245,309.1
		c0.9,0,1.6-0.7,1.6-1.6c0,0,0,0,0,0c0-0.9-0.7-1.6-1.6-1.6c-0.9,0-1.6,0.7-1.6,1.6C243.4,308.4,244.1,309.1,245,309.1
		C245,309.1,245,309.1,245,309.1 M226.1,319.3c1.3,0,2.4-1.1,2.4-2.4c0-1.3-1.1-2.4-2.4-2.4c0,0,0,0,0,0c-1.3,0-2.4,1.1-2.4,2.4
		c0,0,0,0,0,0C223.7,318.2,224.8,319.3,226.1,319.3C226.1,319.3,226.1,319.3,226.1,319.3L226.1,319.3z M221.8,324.1
		c1.4,0,2.6-1.1,2.6-2.6c0,0,0,0,0,0c0-1.4-1.1-2.6-2.6-2.6c0,0,0,0,0,0c-1.4,0-2.6,1.1-2.6,2.6c0,0,0,0,0,0
		C219.2,322.9,220.4,324,221.8,324.1z M218.2,329.9c1.5,0,2.8-1.2,2.8-2.7c0-1.5-1.2-2.8-2.7-2.8c-1.5,0-2.8,1.2-2.8,2.7
		C215.4,328.6,216.6,329.8,218.2,329.9C218.2,329.9,218.2,329.9,218.2,329.9L218.2,329.9z M245.4,315.3c0.8,0,1.5-0.6,1.5-1.5
		c0,0,0,0,0,0c0-0.8-0.6-1.5-1.5-1.5c0,0,0,0,0,0c-0.8,0-1.5,0.6-1.5,1.5c0,0,0,0,0,0C244,314.6,244.6,315.3,245.4,315.3
		C245.4,315.3,245.4,315.3,245.4,315.3L245.4,315.3z M252.2,311.1c0.7,0,1.2-0.6,1.2-1.3c0-0.7-0.6-1.2-1.2-1.2
		c-0.7,0-1.2,0.6-1.2,1.3C251,310.5,251.6,311.1,252.2,311.1L252.2,311.1z M249,312.9c0.7,0,1.3-0.6,1.3-1.3c0-0.7-0.6-1.3-1.3-1.3
		c-0.7,0-1.3,0.6-1.3,1.3c0,0,0,0,0,0C247.7,312.4,248.3,312.9,249,312.9z M241.5,318.9c1,0,1.9-0.8,1.9-1.9s-0.8-1.9-1.9-1.9
		s-1.9,0.8-1.9,1.9S240.4,318.9,241.5,318.9z M237.4,323.9c1.2,0,2.2-1,2.2-2.2s-1-2.2-2.2-2.2s-2.2,1-2.2,2.2
		S236.2,323.9,237.4,323.9z M233.2,329.8c1.4,0,2.5-1.1,2.5-2.5c0-1.4-1.1-2.5-2.5-2.5s-2.5,1.1-2.5,2.5S231.8,329.8,233.2,329.8z"
		/>
	<path class="st1" d="M257.4,301.4c0,0.8-0.6,1.4-1.4,1.4c-0.8,0-1.4-0.6-1.4-1.4s0.6-1.4,1.4-1.4
		C256.7,300.1,257.4,300.7,257.4,301.4z M256,343.5c1,0,1.8,0.8,1.7,1.8c0,0.9-0.8,1.7-1.7,1.7c-1,0-1.8-0.8-1.8-1.8
		C254.2,344.3,255,343.5,256,343.5z M244.1,346.2c-0.1-1,0.5-1.9,1.5-2s1.9,0.5,2,1.5c0,0,0,0.1,0,0.1c0.1,1-0.6,1.9-1.5,2
		c0,0,0,0,0,0C245.2,347.9,244.3,347.2,244.1,346.2C244.1,346.2,244.1,346.2,244.1,346.2L244.1,346.2z M234.8,349
		c-0.3-0.9,0.1-1.8,1-2.1c0.9-0.3,1.8,0.2,2.1,1.1c0.3,0.9-0.1,1.8-1,2.1C236.1,350.3,235.1,349.8,234.8,349L234.8,349z
		 M264.3,345.7c0.1-1,1-1.7,2-1.5c1,0.1,1.7,1,1.5,2l0,0c-0.1,1-1,1.7-2,1.5C264.9,347.6,264.2,346.7,264.3,345.7z M274.1,347.9
		c0.3-0.9,1.3-1.3,2.1-1.1c0.9,0.3,1.3,1.2,1,2.1c-0.3,0.9-1.3,1.3-2.1,1.1C274.2,349.7,273.8,348.8,274.1,347.9L274.1,347.9z
		 M256,328.5c0.9,0,1.7,0.8,1.7,1.7c0,0.9-0.8,1.7-1.7,1.7c-0.9,0-1.7-0.8-1.7-1.7S255,328.5,256,328.5z M271.5,330.3
		c0.9,0,1.7,0.8,1.7,1.7c0,0.9-0.8,1.7-1.7,1.7c-0.9,0-1.7-0.8-1.7-1.7C269.8,331,270.6,330.3,271.5,330.3z M286.9,335
		c0.9,0,1.7,0.8,1.7,1.7c0,0.9-0.8,1.7-1.7,1.7s-1.7-0.8-1.7-1.7C285.2,335.8,286,335,286.9,335z M242.2,332c0,0.9-0.8,1.7-1.7,1.7
		c-0.9,0-1.7-0.8-1.7-1.7c0-0.9,0.8-1.7,1.7-1.7S242.2,331,242.2,332L242.2,332z M226.8,336.7c0,0.9-0.8,1.7-1.7,1.7
		c-0.9,0-1.7-0.8-1.7-1.7s0.8-1.7,1.7-1.7S226.8,335.8,226.8,336.7L226.8,336.7z"/>
	<path class="st0" d="M206.4,146.7c-2.2,0-3.3,0.4-4.2,1.1c-1.6,1.2-2.3,3.4-2.3,6.8c0,3.4,0.8,5.5,2.3,6.8c0.9,0.7,2,1.1,4.2,1.1
		s3.3-0.4,4.2-1.1c1.6-1.2,2.3-3.4,2.3-6.8c0-3.4-0.8-5.5-2.3-6.8C209.7,147.1,208.5,146.7,206.4,146.7z M206.4,149.3
		c0.7,0,1.2,0.3,1.4,0.7c0.4,0.6,0.5,1.4,0.5,4.6c0,3.3-0.1,4-0.5,4.6c-0.3,0.4-0.7,0.7-1.4,0.7c-0.7,0-1.2-0.3-1.4-0.7
		c-0.4-0.6-0.5-1.4-0.5-4.6c0-3.3,0.1-4,0.5-4.6C205.2,149.6,205.7,149.3,206.4,149.3z M198.3,155v6.5c0,0.6-0.2,0.8-0.8,0.8H185
		v-2.4c1.5,0,1.8-0.5,1.8-1.8V148c0-1.6-0.3-2-1.8-2v-2.4h8.7v2.4c-1.9,0-2.2,0.6-2.2,2v11.1c0,0.3,0.1,0.5,0.5,0.5
		c2.4,0,3.3-0.9,4.2-4.7L198.3,155L198.3,155L198.3,155z M248.8,158.7l-3.7-14c-0.2-0.8-0.5-1.1-1.5-1.1h-8.1v2.2
		c1.4,0.1,1.7,0.6,1.3,2.1l-2.7,10.3c-0.3,1.1-0.7,1.5-1.7,1.6v2.4h7.3v-2.4c-1.8,0-2.2-0.5-1.9-1.6l0.1-0.6
		c0.1-0.3,0.2-0.4,0.5-0.4h4.7c0.4,0,0.5,0.1,0.5,0.4l0.1,0.6c0.3,1-0.2,1.6-1.7,1.6v2.4h8.1v-2.4
		C249.4,159.8,249,159.5,248.8,158.7 M242.4,154.8h-3.3c-0.4,0-0.5-0.1-0.4-0.5l1.7-6.9c0.1-0.3,0.2-0.4,0.4-0.4
		c0.2,0,0.3,0.1,0.4,0.4l1.7,6.9C242.9,154.7,242.8,154.8,242.4,154.8 M287.1,149.7c-0.4,0.5-0.6,1.3-0.6,3.1c0,0.3,0.1,0.5,0.5,0.5
		h2.9c0.3,0,0.4-0.1,0.5-0.5c0.1-1.5-0.1-2.6-0.5-3.1c-0.3-0.3-0.6-0.5-1.3-0.5C287.8,149.2,287.3,149.4,287.1,149.7L287.1,149.7z
		 M289.1,160c1.5,0,2.5-0.8,3.2-2.6h1.9v2.6c0,1.2-0.3,1.6-1.3,1.9c-1.1,0.4-2.6,0.6-4.3,0.6c-2.3,0-3.8-0.5-4.8-1.5
		c-1.3-1.2-1.9-3.2-1.9-6.4c0-3.2,0.6-5.1,2-6.4c0.9-1,2.3-1.6,4.8-1.6c2.2,0,3.6,0.6,4.5,1.6c1.1,1.2,1.5,2.9,1.5,5.6
		c0,1.5-0.2,1.8-1.4,1.8H287c-0.3,0-0.5,0.1-0.5,0.5C286.5,159,287.4,160,289.1,160 M308.8,149.7c-0.4,0.5-0.6,1.3-0.6,3.1
		c0,0.3,0.1,0.5,0.5,0.5h2.9c0.3,0,0.4-0.1,0.5-0.5c0.1-1.5-0.1-2.6-0.5-3.1c-0.3-0.3-0.6-0.5-1.3-0.5
		C309.5,149.2,309.1,149.4,308.8,149.7 M310.8,160c1.5,0,2.6-0.8,3.2-2.6h1.9v2.6c0,1.2-0.3,1.6-1.3,1.9c-1.1,0.4-2.6,0.6-4.3,0.6
		c-2.3,0-3.8-0.5-4.8-1.5c-1.3-1.2-1.9-3.2-1.9-6.4c0-3.2,0.6-5.1,2-6.4c0.9-1,2.3-1.6,4.8-1.6c2.1,0,3.6,0.6,4.5,1.6
		c1.1,1.2,1.5,2.9,1.5,5.6c0,1.5-0.2,1.8-1.4,1.8h-6.3c-0.3,0-0.5,0.1-0.5,0.5C308.2,159,309.1,160,310.8,160 M301.3,158.5
		c0,1,0.4,1.4,1.4,1.4v2.4h-3.8c-1.4,0-2-0.6-2-2v-12.8c0-1-0.4-1.4-1.4-1.4v-2.4h5.8L301.3,158.5L301.3,158.5L301.3,158.5z
		 M225.4,151.6h-1.7c-0.7-1.7-2.1-2.5-3.7-2.5c-1.2,0-1.6,0.5-1.6,1.3c0,0.8,0.5,1.3,1.6,1.7l2.1,0.7c3,1.1,4.2,2.4,4.2,4.9
		c0,3.3-2.2,4.8-6.1,4.8c-1.4,0-2.9-0.2-3.9-0.4c-1.3-0.3-1.6-0.7-1.6-1.6v-3.1h1.8c0.9,1.7,2.1,2.7,3.9,2.7c1.3,0,2-0.6,2-1.5
		c0-0.9-0.6-1.4-1.8-1.8l-2-0.7c-2.8-1-3.9-2.3-3.9-4.8c0-2.8,1.8-4.5,5.7-4.5c1.2,0,2.4,0.2,3.5,0.4c1.3,0.3,1.6,0.7,1.6,1.8
		L225.4,151.6L225.4,151.6L225.4,151.6z M329.1,151.6h-1.7c-0.7-1.7-2.1-2.5-3.7-2.5c-1.2,0-1.6,0.5-1.6,1.3c0,0.8,0.5,1.3,1.6,1.7
		l2.1,0.7c3,1.1,4.2,2.4,4.2,4.9c0,3.3-2.2,4.8-6.1,4.8c-1.4,0-2.9-0.2-3.9-0.4c-1.3-0.3-1.6-0.7-1.6-1.6v-3.1h1.8
		c0.9,1.7,2.1,2.7,3.9,2.7c1.3,0,2-0.6,2-1.5c0-0.9-0.6-1.4-1.8-1.8l-2-0.7c-2.8-1-3.9-2.3-3.9-4.8c0-2.8,1.8-4.5,5.7-4.5
		c1.2,0,2.4,0.2,3.5,0.4c1.3,0.3,1.6,0.7,1.6,1.8L329.1,151.6C329.1,151.6,329.1,151.6,329.1,151.6z M266.2,159.9v2.4h-4
		c-1.4,0-2-0.6-2-2c0-2.6,0.1-5.6,0.1-8.5c0-1.4-0.4-1.9-1.3-1.9c-1.1,0-1.9,0.9-1.9,2.6v6c0,1,0.4,1.4,1.4,1.4v2.4h-7.2v-2.4
		c1,0,1.4-0.4,1.4-1.4v-7.7c0-1-0.4-1.4-1.4-1.4V147h3.2c1.4,0,1.9,0.4,2.2,1.7c0.1,0.2,0.2,0.3,0.4,0c0.8-1.3,2-2,3.9-2
		c2.6,0,3.8,1.4,3.8,4.4c0,3-0.1,4.8-0.1,7.4C264.8,159.4,265.2,159.9,266.2,159.9 M273.7,156.1c0.6,0,0.9-0.2,1.2-0.4
		c0.5-0.5,0.7-1.2,0.7-2.9c0-1.7-0.2-2.5-0.7-2.9c-0.3-0.3-0.6-0.4-1.2-0.4c-0.6,0-0.9,0.2-1.2,0.4c-0.5,0.5-0.7,1.2-0.7,2.9
		s0.2,2.5,0.7,2.9C272.8,155.9,273.1,156.1,273.7,156.1L273.7,156.1z M273.7,166.1c2.2,0,2.8-0.2,3.2-0.5c0.3-0.2,0.4-0.5,0.4-0.8
		c0-0.7-0.4-0.9-1.4-0.9c-1.7,0-3.3,0-4.9,0c-0.9,0-1.4,0.4-1.4,1c0,0.3,0.1,0.6,0.4,0.8c0.4,0.3,0.9,0.4,3.2,0.4L273.7,166.1
		L273.7,166.1L273.7,166.1z M278.7,149.5c0.9,0.8,1.3,2,1.3,3.5c0,3.3-2.2,5.6-6.5,5.6c-0.9,0-1,0-1.7,0c-0.6,0-0.9,0.3-0.9,0.6
		c0,0.5,0.3,0.8,1.3,0.8c1.6,0,2.7-0.1,4.4-0.1c3.3,0,4.5,1.4,4.5,3.7c0,1.3-0.4,2.3-1.3,3.1c-1.1,0.9-2.4,1.3-6.2,1.3h-0.9
		c-3.2,0-4.3-0.3-5-0.9c-0.6-0.4-0.8-1-0.8-1.8c0-1,0.6-1.8,1.8-2.2c0.2-0.1,0.2-0.2,0-0.3c-0.9-0.5-1.3-1.3-1.3-2.4
		c0-1.3,0.7-2.3,2.2-2.7c0.2-0.1,0.2-0.2,0.1-0.3c-1.5-1.1-2.2-2.6-2.2-5c0-3.8,2.1-6,6.4-6c1.5,0,2.5,0.3,4.5,0.3h3v2.2h-2.5
		C278.6,149.2,278.5,149.4,278.7,149.5z"/>
	<path class="st1" d="M367.7,215.4c0,0.5,0.3,1,2.3,1.3c1,0.1,2.1,0.3,3.4,0.5c0.1,2.1,0.5,4.2,1.1,6.2l3-0.1
		c-0.8-2.4-1.3-5-1.3-7.5L367.7,215.4L367.7,215.4L367.7,215.4z M343,191.2c4.4,0.4,7.1,3.2,7.9,10.5l2.7-0.3
		c-0.9-7.7-4.1-10.3-9.2-10.3C343.9,191.1,343.5,191.2,343,191.2 M363.9,249.9h-2.7l-5.1,15.2l2.8-0.2L363.9,249.9L363.9,249.9z
		 M384.3,246.3c1.8,0.2,5,0.6,8.3,0.8c1.9,2.3,3.2,4.5,3.9,6.7l3-0.1c-0.7-2.7-2.2-5.3-4.7-8.1l-12.8-0.6
		C381.9,245.6,382.3,246,384.3,246.3 M387.9,189.1c5.8-4.9,13.6-7.6,23.4-7.7c-0.6,0-1.1,0-1.7,0c-10.4,0-18.6,2.7-24.6,7.9
		L387.9,189.1L387.9,189.1z M409.9,191.1c-0.5,0-0.9,0-1.3,0.1c3.7,0.3,6.1,1.7,7.4,5l2.6-0.3C417,192.4,414.2,191.1,409.9,191.1
		L409.9,191.1z M356.4,225c0,0.5,0.4,0.9,2.4,1.2c3.7,0.5,10.7,1.1,17.5,1.6c1.7,3.3,4.1,6.5,7.2,9.9l3.4-0.1
		c-3.8-4-6.6-7.8-8.4-11.7L356.4,225L356.4,225z M372,239.2c0,0.6,0.4,1,2.4,1.2c3.3,0.4,8.5,0.9,13,1.2l1.7,1.8l3.3-0.2l-3.1-3.2
		L372,239.2L372,239.2L372,239.2z M215.2,257.3l4.9-14.6l-17.7-0.7c0,0.6,0.4,1,2.4,1.3c2.9,0.3,7.5,0.8,12,1.2l-4.4,13L215.2,257.3
		L215.2,257.3L215.2,257.3z M172.6,259.5l4-11.9l-22.6-0.7c0,0.6,0.6,1.2,2.6,1.3c3.9,0.4,10.4,0.8,16.7,1.1l-3.4,10.2L172.6,259.5
		L172.6,259.5L172.6,259.5z M270.8,223.6c0.6,0.1,1.3,0.3,2,0.4l-8.8,26.2l-0.1,5c0,1.8,0.5,1.8,1.1,0.1l10.9-32.4l-7.4-0.6
		C268.5,222.8,268.8,223.1,270.8,223.6 M271.7,207c1.3,0.2,3.9,0.6,6.5,0.9l-4.3,12.8l2.8-0.2l4.5-13.5c0.1-0.3,0.2-0.5,0.3-0.7
		l-12.1-0.6C269.3,206.2,269.7,206.6,271.7,207L271.7,207z M310.6,199.3c1.7-2.4,3.4-4.5,5.2-6.3c7.5-7.5,17-11.4,31.3-11.6
		c-0.5,0-1,0-1.4,0c-15.1,0-24.9,3.9-32.6,11.6c-1.9,1.8-3.6,4-5.3,6.5L310.6,199.3L310.6,199.3L310.6,199.3z M279.4,203.9l2.8-0.2
		c2.4-8.6,0.7-11.1-5.8-12.5l2.8-8.3h-2.7l-3.2,9.4C280.5,193.9,281.8,195.8,279.4,203.9 M377.2,192.3c1.2,0.2,2.6,0.4,4.2,0.6
		c-2.4,3-4.4,6.5-5.8,10.6c-1.2,3.6-2,6.9-2.2,10.1l2.8-0.3c0.2-3,0.9-6.2,2.1-9.7c1.6-4.7,3.9-8.7,6.9-12l-10.5-0.6
		C374.8,191.6,375.2,192,377.2,192.3L377.2,192.3z M297.4,228c1-2.9,2-5.8,3.1-8.6l-7.2-0.6c0,0.5,0.3,0.8,1.3,1.1
		c0.7,0.2,1.7,0.4,2.7,0.6c-0.9,2.5-1.8,4.9-2.7,7.4c-0.5,1.5-1,3.1-1.6,4.6l2.8-0.2C296.4,230.9,296.9,229.4,297.4,228
		 M304.1,210.8l-6.2-0.5c0,0.5,0.4,0.8,1.5,1.2c0.4,0.1,1,0.3,1.5,0.4c-0.8,1.8-1.6,3.6-2.3,5.4l2.8-0.2
		C302.4,214.8,303.3,212.8,304.1,210.8L304.1,210.8z M309,201.7l-11.1-0.6c0,0.5,0.5,1,1.5,1.2c1.6,0.3,3.7,0.6,6,0.8
		c-1,1.8-2,3.7-3.1,5.8l2.8-0.2C306.4,206.1,307.7,203.8,309,201.7L309,201.7z M94,258.8l3.5-10.3l-10.1-0.6c0,0.5,0.3,1,2.3,1.4
		c1.3,0.2,2.9,0.5,4.6,0.7l-3,9L94,258.8L94,258.8L94,258.8z M295.2,234.8l-8-0.6c0,0.6,0.3,1,2.3,1.4c0.7,0.2,1.6,0.3,2.6,0.5
		c-2.4,7.8-4,14.2-4.8,19.6l2.7-0.2C290.8,249.9,292.5,243.1,295.2,234.8 M405.5,206.1c2.7,0.3,7.2,0.7,11.8,1
		c0,1.8-0.1,3.5-0.3,5.3h2.7c0.2-2.5,0.3-4.8,0.3-6.8l-16.7-0.7C403.3,205.5,403.8,205.9,405.5,206.1 M327.2,230.8l-3.2,9.4
		c7,1.1,8.6,2.2,6.6,9.4l2.7-0.1c2-7.6,0.3-9.4-6.3-10.4l2.8-8.3L327.2,230.8L327.2,230.8L327.2,230.8z M419.3,198.3l-8.5-0.4
		c0,0.5,0.4,0.9,2.4,1.2c0.9,0.1,2.2,0.3,3.7,0.5c0.2,1.1,0.3,2.2,0.4,3.5l2.7-0.1C419.9,201.3,419.7,199.7,419.3,198.3L419.3,198.3
		z M289.7,258l-10.4-0.7c0,0.5,0.4,1,2.4,1.4c1.2,0.2,3.1,0.5,5.2,0.8c-0.2,3.2-0.1,6,0.4,8.6l2.7-0.1
		C289.4,265.1,289.3,261.8,289.7,258 M353.9,208c0-1.5,0-2.9-0.1-4.2l-8.5-0.4c0,0.6,0.5,0.9,1.9,1.2c1,0.2,2.4,0.3,3.9,0.5
		c0,0.9,0,1.9,0,3L353.9,208L353.9,208z M399.9,256.3l-21.6-0.8c0,0.5,0.4,0.9,2.4,1.2c4,0.5,10.8,1.1,16.4,1.6
		c0,1.8-0.4,3.8-1.2,5.8l2.8-0.2C399.7,261.2,400.1,258.8,399.9,256.3 M332,254.4c0.3-0.8,0.5-1.6,0.8-2.4l-16.3-0.7
		c0,0.6,0.4,0.9,1.7,1c3,0.4,7.3,0.8,11.4,1.2c-0.1,0.3-0.2,0.6-0.3,0.9l-1.8,5.4l2.8-0.1L332,254.4L332,254.4L332,254.4z
		 M382.6,274.9c0.5,0,0.9,0,1.4,0c6.2,0,10.9-2.7,13.7-8.4l-11.3-0.7c0,0.5,0.4,1.1,2.4,1.3c1.6,0.2,3.5,0.5,5.5,0.7
		C391.7,272.3,387.7,274.6,382.6,274.9 M329.3,262.2l-11.6-0.7c0,0.5,0.4,0.9,1.8,1.1c1.9,0.3,4.1,0.6,6.6,0.9l-1.4,4.3l2.8-0.2
		L329.3,262.2L329.3,262.2L329.3,262.2z M353.5,216.1c0.2-2.1,0.3-4,0.4-5.7l-16.6-0.7c0,0.5,0.4,0.9,2.4,1.2
		c3.1,0.4,6.8,0.8,11.4,1.2c-0.1,1.3-0.2,2.7-0.3,4H353.5L353.5,216.1z M321.4,274.5c0.9,0,1.8-0.1,2.6-0.2c0.9-0.1,1.5-0.6,1.9-1.7
		l0.9-2.8l-7.2-0.6c0,0.5,0.4,0.8,1.4,1.1c0.7,0.2,1.6,0.4,2.7,0.5l-0.6,1.8C322.8,273.6,322.4,274.2,321.4,274.5 M244.6,205.5
		c0-1.7-0.5-1.7-1.1-0.1l-1.7,5.1l-0.4,27.5l2.7-0.3L244.6,205.5L244.6,205.5L244.6,205.5z M110.9,199.2l2.7-0.2
		c0.8-4.9-0.6-6.4-4-7.7l2.8-8.3h-2.7l-3.2,9.4C110.3,193.5,111.8,194.7,110.9,199.2 M90.6,208.9c4.2,0.4,10.5,0.9,17,1.2l-4.8,14.3
		l2.8-0.1l5.3-15.9l-22.6-0.7C88.3,208.2,89,208.7,90.6,208.9 M231.7,197.9l2.8-0.2c0.4-3.9-1.2-5.2-5.1-6.4l2.8-8.3h-2.7l-3.2,9.4
		C230.2,193.2,232,194.3,231.7,197.9 M87.6,239c2.4,0.3,6.2,0.7,10,1l-2.1,6.3l2.8-0.2l2.6-7.7l-15.6-0.7
		C85.2,238.3,86,238.8,87.6,239 M149.3,201.8l-2.1,2l4-0.1l0.1-0.1c7.1-6.5,6.4-11.1,0.7-12.2l2.8-8.3H152l-3.2,9.4
		C155.2,193.1,155.4,196.2,149.3,201.8 M188.5,183l-3.2,9.4c4,1.2,5.4,2.4,4.3,7.4l2.7-0.1c1.1-5.5-0.3-7.1-3.9-8.4l2.8-8.3
		L188.5,183L188.5,183L188.5,183z M104,202c1.6,0.3,3.6,0.6,6,0.9c-0.3,1-0.6,2-1,3l2.7-0.1c0.5-1.6,1-3.1,1.3-4.3l-10.8-0.7
		C102.3,201.5,102.7,201.8,104,202 M293.3,276.3c-1.2-1.7-2.2-3.7-2.8-5.8l-15.2-0.7c0,0.5,0.4,0.9,2.4,1.2
		c2.3,0.3,6.8,0.8,10.6,1.2c0.6,1.5,1.3,2.9,2.3,4.2c3.8,5.3,11.8,8.4,23.1,8.4c0.6,0,1.2,0,1.9,0
		C304.8,284.5,297,281.4,293.3,276.3 M92.9,261.9l0.2-0.6l-16.6-0.8c0,0.6,0.4,1,2.6,1.3c2.7,0.3,6.3,0.7,10.7,1.2
		c-2.9,8.3-5.2,9.7-10.7,10.7l-3.2,9.4h2.7l2.8-8.3C87.6,273.3,89.8,271.3,92.9,261.9 M243.6,276.3l0.1-9.3l-13.5-0.6
		c0,0.6,0.4,0.9,2.4,1.3c2.3,0.4,5.2,0.7,8.3,0.9l-0.1,7.7c-0.1,5.1,1.3,6.8,5.7,6.8h2.7C245,283.1,243.5,281.4,243.6,276.3
		L243.6,276.3z M354.4,278.2l3.7-11l-8.2-0.4c0,0.7,0.3,1.1,2.4,1.4c0.8,0.2,1.7,0.3,2.6,0.4l-2.8,8.2c-1,3-0.3,4.2,3.8,5.2
		C353.9,281.6,353.5,280.6,354.4,278.2 M214.2,260.1l0.1-0.4l-10.8-0.7c0,0.6,0.3,0.9,2.3,1.3c1.7,0.3,3.4,0.6,5.2,0.9
		c-3.3,9.3-5.6,10.9-12.1,12.5l-3.2,9.4h2.7l2.8-8.3C208,273.1,210.7,270.5,214.2,260.1 M129.3,268.3l-0.1-2.6l-14.5-0.7
		c0,0.6,0.4,1,1.7,1.2c2.8,0.4,6.3,0.8,10.1,1.2l0,0.9c0.6,12.5,3,15.2,13.7,15.2c0.6,0,1.1,0,1.7,0
		C132.2,283.2,129.9,280.4,129.3,268.3 M160.3,274.8c6.2-1.5,8.3-3.5,11.4-12.9l-15-0.7c0,0.6,0.5,1,1.6,1.2
		c2.8,0.5,6.4,0.9,10.1,1.3c-2.8,7.7-5.1,9.1-10.4,10l-3.2,9.4h2.7L160.3,274.8L160.3,274.8L160.3,274.8z M244.1,240.1l-7.7-0.4
		c0,0.6,0.4,1.1,2.4,1.4c0.7,0.1,1.6,0.2,2.6,0.4l-0.1,7l2.7-0.1L244.1,240.1z M148.5,206l-13-0.6c0,0.6,0.3,0.9,1.5,1.1
		c1.8,0.3,4,0.6,6.3,0.8l-6.6,6.1l4.2-0.4L148.5,206L148.5,206z M215.1,220.2c2.5,0.3,5.9,0.7,9.5,1l-2.5,7.4l2.8-0.2l2.9-8.7
		l-15.2-0.7C212.6,219.5,213,219.9,215.1,220.2 M222,208.7c1.7,0.3,4,0.7,6.4,1.1l-2.5,7.4l2.8-0.1l3.1-9.1l-12.1-0.6
		C219.6,208,220,208.3,222,208.7 M232.6,205.5c0.7-2.2,1.2-4,1.6-5.5l-7.4-0.6c0,0.6,0.3,1,2.3,1.4c0.6,0.1,1.3,0.3,2,0.4
		c-0.3,1.3-0.8,2.8-1.3,4.5L232.6,205.5L232.6,205.5z M128.2,239.3c0-1.2-0.6-1.4-1.4-0.6l-1.3,1.2l0.5,13l2.7-0.2L128.2,239.3
		L128.2,239.3L128.2,239.3z M128.8,255.2l-11.3-0.6c0,0.6,0.4,1,2.2,1.3c1.5,0.2,3.7,0.5,6.4,0.8l0.3,6.5l2.7-0.1L128.8,255.2
		L128.8,255.2L128.8,255.2z M129.7,215.2c0,0.5,0.3,1,2.4,1.4c0.3,0,0.6,0.1,1,0.2l-8.2,7.5l-1.7,5l14.9-13.7L129.7,215.2
		L129.7,215.2z M184.8,223.1l-33.1-0.8c0,0.6,0.7,1.1,2.6,1.3c8.7,0.6,17.1,1.1,27.1,1.4l-1.8,5.3l2.7-0.1L184.8,223.1L184.8,223.1
		L184.8,223.1z M181.1,202.8c2.3,0.4,4.9,0.7,7.4,1c-0.2,0.7-0.5,1.5-0.7,2.3l-0.8,2.4l2.7,0l0.5-1.5c0.6-1.7,1.1-3.3,1.4-4.6
		l-12.5-0.7C179.2,202.2,179.8,202.6,181.1,202.8 M243.8,264.5l0.2-13.7l-11.7-0.7c0,0.6,0.4,1,2.4,1.3c2.2,0.4,4.3,0.6,6.5,0.9
		l-0.2,12.3L243.8,264.5L243.8,264.5L243.8,264.5z M220.9,240.2l3.2-9.5l-8.8-0.6c0,0.6,0.3,0.9,2.3,1.3c0.9,0.2,2.1,0.4,3.3,0.7
		l-2.8,8.2L220.9,240.2L220.9,240.2L220.9,240.2z M188.9,210.9l-24.2-0.7c0,0.7,0.9,1.1,2.6,1.3c4.9,0.4,11.2,0.8,18.4,1.2l-2.7,8.1
		l2.7,0L188.9,210.9L188.9,210.9L188.9,210.9z M101.7,235.9l3.1-9.1l-12.4-0.7c0,0.5,0.5,0.8,1.7,1c1.8,0.3,4.6,0.7,7.5,1.1
		l-2.6,7.8L101.7,235.9L101.7,235.9z M177.4,245.1l4.1-12.3l-19.1-0.8c0,0.5,0.5,1,1.9,1.2c3.8,0.4,9.3,1,13.9,1.3l-3.6,10.6
		L177.4,245.1L177.4,245.1z"/>
	<path class="st0" d="M435.7,187.6l-8.3,24.8h-7.6c0.2-2.5,0.3-4.8,0.3-6.8l-16.7-0.7c0-0.6,0.6-1.3,3.1-1.4l13.5-0.4
		c-0.1-1.9-0.3-3.5-0.6-4.8l-8.5-0.4c0-0.7,0.5-1.2,3.1-1.5l4.7-0.5c-1.5-3.5-4.3-4.8-8.7-4.8c-6.5,0-11,3.5-13.3,9.9
		c-2.7,7.7-1.5,12.5,5,19.1l5.9,6c13,13.3,15.1,23.2,10,37.1c-5.1,14-16,21.5-36.3,21.5c-8.6,0-18.3-1-25.3-2.6
		c-2-0.5-2.4-1.4-1.5-3.9l3.7-11l-8.2-0.4c0-0.6,0.4-1.3,2.3-1.4l6.7-0.4l5.1-15.1h8.1c-1.7,19.3,2,25.1,12,25.1
		c6.2,0,10.9-2.7,13.7-8.4l-11.3-0.7c0-0.6,0.6-1.2,3.1-1.4l9.2-0.5c0.9-2.7,1.4-5.2,1.2-7.6l-21.6-0.8c0-0.6,0.6-1.3,3.1-1.4
		l18-0.4c-0.7-2.7-2.2-5.3-4.7-8.1l-12.8-0.6c0-0.6,0.6-1.2,3.1-1.4l7.4-0.5l-3.1-3.2l-17.3-0.8c0-0.6,0.6-1.3,3.1-1.4l11.8-0.3
		c-3.8-4-6.6-7.8-8.4-11.7l-22.1-0.8c0-0.7,0.6-1.3,3.1-1.4l18-0.4c-0.8-2.4-1.3-5-1.3-7.5l-8.4-0.3c0-0.6,0.5-1.2,3.1-1.5l5.4-0.7
		c0.2-3,0.9-6.2,2.1-9.7c1.6-4.7,3.9-8.7,6.9-12l-10.5-0.6c0-0.7,0.6-1.2,3.1-1.4l10-0.5c6-5.1,14.1-7.8,24.4-7.8
		c7.1,0,15.7,0.9,21.8,2.3C436.3,184.2,436.6,184.9,435.7,187.6 M362.3,239.2l2.8-8.3H330l-2.8,8.3c6.6,1,8.3,2.9,6.3,10.4
		l-13.9,0.4c-2.5,0.1-3.1,0.7-3.1,1.4l16.3,0.7c-0.2,0.8-0.5,1.6-0.8,2.4l-1.8,5.2l-9.3,0.5c-2.5,0.1-3.1,0.8-3.1,1.4l11.6,0.7
		l-1.8,5.4l-4.8,0.4c-2.5,0.2-3.1,0.7-3.1,1.4l7.2,0.6l-0.9,2.8c-0.4,1.1-0.9,1.5-1.9,1.7c-1.5,0.2-3.1,0.3-4.8,0.3
		c-3.8,0-7.2-1.1-8.7-3.4c-2.6-4-2.2-11,7.5-39.4c8.7-25.3,12.3-32.2,16.8-36.7c2.5-2.5,5.7-3.9,9.7-3.9c5.1,0,8.2,2.5,9.2,10.3
		l-5.2,0.5c-2.5,0.3-3.1,0.8-3.1,1.5l8.5,0.4c0.1,1.3,0.1,2.7,0.1,4.2l-13.6,0.4c-2.5,0.1-3.1,0.7-3.1,1.4l16.6,0.7
		c-0.1,1.9-0.2,3.8-0.4,5.7h8.1l9.7-28.7c1-2.9,0.6-3.5-1.8-3.9c-7-1.3-15-2.1-21.1-2.1c-15.1,0-24.9,3.9-32.6,11.6
		c-1.8,1.8-3.5,3.9-5.2,6.3l-9.5,0.5c-2.5,0.1-3.1,0.7-3.1,1.4l11.1,0.6c-1.3,2.1-2.5,4.4-3.8,7L301,209c-2.5,0.2-3.1,0.7-3.1,1.4
		l6.2,0.5c-0.9,1.9-1.8,4-2.7,6.2l-5,0.4c-2.5,0.2-3.1,0.8-3.1,1.4l7.2,0.6c-1.1,2.8-2.1,5.7-3.1,8.6c-0.5,1.5-1,2.9-1.5,4.4
		l-5.7,0.4c-2.5,0.2-3.1,0.7-3.1,1.4l8,0.6c-2.7,8.3-4.4,15.1-5.2,20.8l-7.6,0.4c-2.5,0.1-3.1,0.7-3.1,1.4l10.4,0.7
		c-0.4,3.8-0.3,7.1,0.2,10l-11.5,0.4c-2.5,0.1-3.1,0.7-3.1,1.4l15.2,0.7c0.6,2.2,1.6,4.1,2.8,5.8c3.8,5.3,11.8,8.4,23.1,8.4
		c9,0,17.6-1,24.2-2.9c1.3-0.4,1.8-0.9,2.3-2.4l10.3-30.7C355.5,242.1,357,240.5,362.3,239.2 M305.3,191.3l2.8-8.3h-29l-2.8,8.3
		c6.5,1.4,8.2,3.9,5.8,12.5l-9.8,0.5c-2.5,0.1-3.1,0.7-3.1,1.4l12.1,0.6c-0.1,0.2-0.2,0.5-0.3,0.7l-4.5,13.5l-5,0.4
		c-2.5,0.2-3.1,0.7-3.1,1.4l7.4,0.6l-10.9,32.4c-0.6,1.8-1.1,1.7-1.1-0.1l0.9-65.3c0.1-5.1-1.2-6.9-6.1-6.9h-26.4l-2.8,8.3
		c3.9,1.1,5.5,2.5,5.1,6.4l-4.6,0.4c-2.5,0.2-3.1,0.7-3.1,1.4l7.4,0.6c-0.3,1.5-0.9,3.3-1.6,5.5l-9.8,0.5c-2.5,0.1-3.1,0.7-3.1,1.4
		l12.1,0.6l-3.1,9.1l-12.9,0.4c-2.5,0.1-3.1,0.7-3.1,1.4l15.2,0.7l-2.9,8.7l-6.5,0.4c-2.5,0.2-3.1,0.7-3.1,1.4l8.8,0.6l-3.2,9.5
		l-15.5,0.4c-2.5,0.1-3.1,0.7-3.1,1.4l17.7,0.7l-4.9,14.6l-8.6,0.5c-2.5,0.1-3,0.7-3,1.4l10.8,0.7l-0.1,0.4
		c-3.5,10.3-6.2,13-12.8,14.7l-2.8,8.3h29l2.8-8.3c-7.2-1.6-8.6-4.5-4.8-15.7l18.1-53.6c0.6-1.7,1.1-1.7,1.1,0.1l-0.5,32.3l-4.7,0.5
		c-2.5,0.3-3.1,0.8-3.1,1.4l7.7,0.4l-0.1,8.2l-8.6,0.5c-2.5,0.1-3.1,0.6-3.1,1.4l11.7,0.7l-0.2,13.7l-10.4,0.5
		c-2.5,0.1-3.1,0.7-3.1,1.4l13.5,0.6l-0.1,9.3c-0.1,5.1,1.3,6.8,5.7,6.8h17.2l26-77.1C296,195.6,298.7,193,305.3,191.3 M191.9,259.2
		l18.5-55.1c3.1-9.3,5.3-11.4,11.4-12.9l2.8-8.3h-33.4l-2.8,8.3c3.6,1.3,5,2.9,3.9,8.4l-10,0.5c-2.5,0.1-3.1,0.7-3.1,1.4l12.5,0.7
		c-0.4,1.3-0.8,2.9-1.4,4.6l-0.5,1.5l-21.9,0.4c-2.5,0-3.1,0.7-3.1,1.4l24.2,0.7l-3.3,9.7l-30.8,0.4c-2.5,0-3.1,0.7-3.1,1.4
		l33.1,0.8l-2.4,7.2l-16.9,0.4c-2.5,0.1-3.1,0.7-3.1,1.4l19.1,0.8l-4.1,12.3l-20.3,0.4c-2.5,0-3.1,0.7-3.1,1.4l22.6,0.7l-4,11.9
		l-12.7,0.4c-2.5,0.1-3.1,0.7-3.1,1.4l15,0.7c-3.1,9.3-5.3,11.4-11.4,12.9l-2.8,8.3h33.4l2.8-8.3C188.9,273,188,270.7,191.9,259.2
		 M149.8,266.9l-2.7-44.8c-0.1-1.5,0.2-2.1,1.3-3.1l21.4-19.6c6.5-6,8.8-7.2,12.9-8.1l2.8-8.3h-30.7l-2.8,8.3
		c5.7,1.1,6.4,5.7-0.7,12.2l-0.1,0.1l-12.5,0.4c-2.5,0.1-3.1,0.8-3.1,1.4l13,0.6l-7.7,7l-8,0.7c-2.5,0.2-3.1,0.8-3.1,1.4l8.4,0.4
		l-14.9,13.7l8.4-25.1c3.1-9.3,4.9-10.3,11.1-11.8l3.2-9.4h-33.4l-2.8,8.3c3.4,1.3,4.9,2.8,4,7.7l-8.2,0.5c-2.5,0.1-3.1,0.7-3.1,1.4
		l10.8,0.7c-0.3,1.3-0.8,2.7-1.3,4.3l-20.4,0.4c-2.5,0-3.1,0.7-3.1,1.4l22.6,0.7l-5.3,15.9l-10.1,0.5c-2.5,0.1-3.1,0.6-3.1,1.4
		l12.4,0.7l-3.1,9.1l-13.3,0.5c-2.5,0.1-3.1,0.7-3.1,1.4l15.6,0.7l-2.6,7.7l-7.8,0.4c-2.5,0.1-3.1,0.7-3.1,1.4l10.1,0.6L94,258.8
		l-14.4,0.4c-2.5,0.1-3.1,0.7-3.1,1.4l16.6,0.8l-0.2,0.6c-3.1,9.3-5.3,11.4-11.4,12.9l-2.8,8.3h35.7l2.8-8.3
		c-7-1.4-8.1-3.8-4.2-15.6l3.9-11.5l9.9-9c0.9-0.8,1.4-0.6,1.4,0.6l0.5,13.3l-8.1,0.6c-2.5,0.2-3.1,0.8-3.1,1.4l11.3,0.6l0.3,7.9
		l-11.3,0.5c-2.5,0.1-3.1,0.7-3.1,1.4l14.5,0.7l0.1,2.6c0.6,12.5,3,15.2,13.7,15.2c3.9,0,7.6-0.2,10.2-0.4l2.8-8.3
		C151.5,274.1,150.1,272.6,149.8,266.9 M330.7,372.3v6.3h-1.6v-6.3h-1.8v-1.6h5.2v1.6H330.7z M339.3,378.6V374l-1.3,2.9h-1.4
		l-1.3-2.9v4.7h-1.6v-7.9h1.6l2,4.2l2-4.2h1.6v7.9H339.3L339.3,378.6z"/>
</g>
</svg>
