<?xml version="1.0" encoding="UTF-8"?>
<!DOCTYPE svg PUBLIC "-//W3C//DTD SVG 1.1//EN" "http://www.w3.org/Graphics/SVG/1.1/DTD/svg11.dtd">
<!-- Creator: CorelDRAW X5 -->
<svg xmlns="http://www.w3.org/2000/svg" xml:space="preserve" width="25.0612mm" height="31.4476mm" style="shape-rendering:geometricPrecision; text-rendering:geometricPrecision; image-rendering:optimizeQuality; fill-rule:evenodd; clip-rule:evenodd"
viewBox="0 0 2506 3145"
 xmlns:xlink="http://www.w3.org/1999/xlink"
 xmlns:svg="http://www.w3.org/2000/svg">
 <defs>
  <style type="text/css">
   <![CDATA[
    .fil0 {fill:#001628;fill-rule:nonzero}
    .fil3 {fill:#629EB5;fill-rule:nonzero}
    .fil1 {fill:#95D8D8;fill-rule:nonzero}
    .fil2 {fill:#C80F2D;fill-rule:nonzero}
   ]]>
  </style>
 </defs>
 <g id="Layer_x0020_1">
  <metadata id="CorelCorpID_0Corel-Layer"/>
 </g>
 <g id="svg2">
  <metadata id="CorelCorpID_1Corel-Layer"/>
  <path class="fil0" d="M1 2561c613,54 1001,226 1191,584 648,-105 1247,-520 1247,-1056 0,-713 -864,-826 -887,-1033 364,132 764,-7 955,-460 -565,-42 -978,-248 -1157,-595 -693,123 -1247,572 -1247,1056 0,707 909,895 1011,1045 -496,-188 -924,26 -1112,460z"/>
  <path class="fil1" d="M1076 1019c-77,-79 -110,-140 -110,-222 0,-93 45,-139 45,-191 0,-45 -28,-80 -82,-91 30,-33 71,-53 116,-55 231,0 300,511 782,492 172,-16 334,-100 436,-247 -421,-55 -806,-234 -994,-538 -195,36 -1012,317 -992,907 22,614 931,786 1185,1049 201,208 60,418 -70,494 -200,-519 -856,-556 -1117,-181 421,55 806,234 994,538 464,-98 689,-505 603,-799 -141,-486 -1058,-572 -1301,-1027 -130,-256 -23,-530 214,-689 -88,110 -136,247 -136,388 21,23 30,77 30,78 3,19 9,58 -1,83 10,27 24,54 40,78 32,8 68,49 68,50 35,40 40,66 41,75 22,19 45,38 69,56 21,-2 52,7 83,28 37,24 55,48 60,65 25,15 52,30 78,44 20,-6 54,1 88,18 34,17 59,41 66,61 27,13 54,27 81,40 20,-6 54,0 88,17 28,12 51,33 66,60 28,15 55,29 82,44 25,-5 65,10 87,23 27,14 48,37 61,64 27,18 54,36 79,55 31,2 60,15 82,36 31,28 48,58 48,79 22,23 42,47 60,73 26,6 52,36 66,66 20,44 18,75 12,90 35,109 45,246 -12,404 -1,2 -1,4 -2,6 117,-128 197,-285 190,-474 -21,-614 -930,-785 -1185,-1049z"/>
  <path class="fil2" d="M1424 1083c-104,-120 -170,-331 -285,-414 -52,182 56,382 285,414z"/>
  <path class="fil3" d="M1343 2797c-20,61 -45,120 -73,178 -188,-304 -572,-483 -994,-538 435,-218 885,11 1067,360zm920 -2091l0 0c-435,218 -886,-11 -1067,-359 20,-61 45,-120 73,-178 -184,33 -1012,312 -992,907 22,614 931,786 1185,1050 201,208 60,418 -70,494 -13,60 -30,120 -49,178 95,-16 382,-169 384,-461 3,-403 -518,-509 -914,-754 -325,-201 -388,-401 -404,-528 -39,-297 171,-569 476,-697 -37,30 -70,65 -99,103 -88,110 -136,247 -136,388 21,23 30,77 30,78 3,19 9,58 -1,83 10,27 24,54 40,78 32,8 68,49 68,50 35,40 40,66 41,75 22,19 45,38 69,56 21,-2 52,7 83,28 37,24 55,48 60,65 25,15 52,30 78,44 20,-6 54,1 88,18 34,17 59,41 66,61 27,13 54,27 81,40 20,-6 54,0 88,17 28,12 51,33 66,60 28,15 55,29 82,44 25,-5 65,10 87,23 27,14 48,37 61,64 27,18 54,36 79,55 31,2 60,15 82,36 31,28 48,58 48,79 22,23 42,47 60,73 26,6 52,36 66,66 20,44 18,75 12,90 35,109 45,246 -12,404 150,-255 135,-507 -32,-720 -350,-446 -1232,-499 -1228,-1010 1,-108 43,-212 117,-292 30,-33 71,-53 116,-55 231,0 300,511 782,492 172,-16 334,-100 436,-247l0 1z"/>
 </g>
</svg>
