<?xml version="1.0" encoding="utf-8"?>
<!-- Generator: Adobe Illustrator 26.0.2, SVG Export Plug-In . SVG Version: 6.00 Build 0)  -->
<svg version="1.1" id="Layer_1" xmlns="http://www.w3.org/2000/svg" xmlns:xlink="http://www.w3.org/1999/xlink" x="0px" y="0px"
	 viewBox="0 0 512 512" style="enable-background:new 0 0 512 512;" xml:space="preserve">
<style type="text/css">
	.st0{fill:#6CACE4;}
	.st1{fill:#010101;}
	.st2{fill:#FFFFFF;}
</style>
<g>
	<path class="st0" d="M256,481c123.3,0,223.2-100.7,223.2-225S379.3,31,256,31S32.8,131.7,32.8,256S132.7,481,256,481L256,481z"/>
	<path class="st0" d="M256,446.4c105.1,0,190.4-85.2,190.4-190.4S361.1,65.6,256,65.6S65.6,150.9,65.6,256S150.9,446.4,256,446.4z"
		/>
	<path class="st1" d="M256,65.6c105.1,0,190.4,85.2,190.4,190.4S361.1,446.4,256,446.4S65.6,361.1,65.6,256S150.9,65.6,256,65.6
		L256,65.6z M256,50.5c-27.7,0-54.7,5.5-80,16.2c-24.5,10.4-46.5,25.2-65.3,44.1C91.8,129.6,77,151.6,66.6,176
		c-10.7,25.3-16.2,52.3-16.2,80s5.5,54.7,16.2,80c10.4,24.5,25.2,46.5,44.1,65.3c18.9,18.9,40.9,33.7,65.3,44.1
		c25.3,10.7,52.3,16.2,80,16.2s54.7-5.5,80-16.2c24.5-10.4,46.5-25.2,65.3-44.1c18.9-18.9,33.7-40.9,44.1-65.3
		c10.7-25.3,16.2-52.3,16.2-80s-5.5-54.7-16.2-80c-10.4-24.5-25.2-46.5-44.1-65.3C382.5,91.8,360.5,77,336,66.6
		C310.7,55.9,283.7,50.5,256,50.5L256,50.5z"/>
	<path class="st2" d="M161.2,162.8l-23.3-27.4l4.4-3.8l9.9,11.6l9.3-7.9l-9.9-11.6l4.4-3.8l23.3,27.4l-4.4,3.8l-9.9-11.6l-9.3,7.9
		l9.9,11.6L161.2,162.8L161.2,162.8z"/>
	<path class="st2" d="M161.1,163.4l-23.8-28l5.1-4.3l9.9,11.6l8.7-7.4l-9.9-11.6l5.1-4.3l23.8,28l-5.1,4.3l-9.9-11.6l-8.7,7.4
		l9.9,11.6L161.1,163.4L161.1,163.4z M138.5,135.5l22.7,26.7l3.8-3.2l-9.9-11.6l10-8.5l9.9,11.6l3.8-3.2L156,120.6l-3.8,3.2
		l9.9,11.6l-10,8.5l-9.9-11.6L138.5,135.5L138.5,135.5z M196.4,137.4l-4.8-1.9l-11.3-26.3l1.9-4.8l15.2-6.5l4.8,1.9l11.3,26.3
		l-2,4.8L196.4,137.4L196.4,137.4L196.4,137.4z M197.4,131.1l9-3.9l0.7-1.6l-8.9-20.9l-1.6-0.6l-9,3.9l-0.7,1.6l8.9,20.9
		L197.4,131.1L197.4,131.1z"/>
	<path class="st2" d="M196.4,137.9l-5.1-2.1l-11.4-26.6l2.1-5.1l15.5-6.6l5.2,2l11.4,26.6l-2.1,5.1L196.4,137.9L196.4,137.9
		L196.4,137.9z M191.9,135.2l4.5,1.8l14.9-6.4l1.9-4.5l-11.1-26l-4.5-1.8l-14.9,6.4l-1.8,4.5L191.9,135.2L191.9,135.2L191.9,135.2z
		 M197.4,131.6l-1.9-0.7l-9.1-21.2l0.8-1.9l9.3-4l1.9,0.7l9.1,21.2l-0.8,1.9L197.4,131.6L197.4,131.6z M196.1,130.2l1.3,0.5l8.7-3.7
		l0.5-1.3l-8.8-20.5l-1.3-0.5l-8.7,3.7l-0.6,1.3L196.1,130.2L196.1,130.2z M234,125.2l-4-3.3l-3-28.5l3.3-4l16.4-1.7l4.1,3.3
		l0.9,8.6l-5.8,0.6l-0.6-5.6l-1.4-1.1l-9.8,1l-1.1,1.3l2.3,22.6l1.4,1.1l9.8-1l1.1-1.3l-0.6-5.6l5.8-0.6l0.9,8.6l-3.3,4L234,125.2
		L234,125.2L234,125.2z"/>
	<path class="st2" d="M233.9,125.6l-4.3-3.5l-3-28.8l3.5-4.3h0.2l16.6-1.8l4.3,3.5l1,9.2l-6.6,0.7l-0.6-5.9l-1.1-0.9l-9.4,1
		l-0.9,1.1l2.3,22.2l1.1,0.9l9.4-1l0.9-1.1l-0.6-5.9l6.6-0.7l1,9.2l-3.5,4.3h-0.2L233.9,125.6L233.9,125.6L233.9,125.6z
		 M230.4,121.7l3.7,3.1l16.1-1.7l3.1-3.8l-0.8-8l-4.9,0.5l0.6,5.4l-1.4,1.6l-10.1,1.1l-1.6-1.3l-2.4-22.9l1.4-1.6l10.1-1.1l1.6,1.3
		l0.6,5.4l4.9-0.5l-0.8-8l-3.8-3l-16.1,1.7l-3.1,3.7L230.4,121.7L230.4,121.7L230.4,121.7z M270.2,123.9l6.9-35.2l5.7,1.1l-3,15
		l5.9,1.2l9.6-13.7l6.2,1.2l-11.4,16.1l4.5,19.2l-6.2-1.2l-3.8-16.3l-5.9-1.2l-3,15L270.2,123.9L270.2,123.9L270.2,123.9z"/>
	<path class="st2" d="M295.2,129.2l-7.1-1.4l-3.8-16.3l-5.2-1l-3,15l-6.5-1.3l7.1-36.1l6.5,1.3l-3,15l5.2,1l9.6-13.7l7.1,1.4
		l-11.6,16.5L295.2,129.2L295.2,129.2L295.2,129.2z M288.8,127.1l5.3,1.1l-4.4-18.7l11.1-15.7l-5.3-1.1l-9.6,13.7l-6.5-1.3l3-15
		l-4.9-1l-6.8,34.4l4.9,1l3-15l6.5,1.3L288.8,127.1L288.8,127.1L288.8,127.1z M308.4,134l16.8-31.8l19.4,10.2l-2.6,4.8l-14.3-7.5
		l-4.6,8.7l12.6,6.7l-2.5,4.7l-12.6-6.7l-4.6,8.7l14.3,7.6l-2.6,4.8l-19.5-10.3L308.4,134L308.4,134z"/>
	<path class="st2" d="M328.1,144.8l-20.2-10.7l17.2-32.5l20.1,10.6l-3,5.6l-14.3-7.5l-4.2,8l12.6,6.7l-2.9,5.5l-12.6-6.7l-4.2,8
		l14.3,7.6L328.1,144.8L328.1,144.8L328.1,144.8z M309,133.8l18.7,9.9l2.2-4.1l-14.3-7.6l5-9.5l12.6,6.7l2.1-4l-12.6-6.7l5-9.5
		l14.3,7.5l2.2-4.1l-18.6-9.8L309,133.8L309,133.8L309,133.8z M346.4,159.2l9.6-9.8v-4.3l8.3-18.7l4.5,4.4l-7.3,16.6l0.8,0.8
		l16.4-7.7l4.5,4.4l-18.5,8.6l-4.3,0.2l-9.6,9.8L346.4,159.2L346.4,159.2L346.4,159.2z"/>
	<path class="st2" d="M350.7,164.1l-4.9-4.8l9.8-10l0.1-4.3l8.4-19.3l5.1,5l-7.3,16.6l0.4,0.4l16.4-7.7l5.1,5l-19.2,8.9l-4.1,0.1
		L350.7,164.1L350.7,164.1L350.7,164.1z M347,159.2l3.7,3.7l9.5-9.7l4.3-0.2l17.9-8.3l-3.8-3.7l-16.4,7.7l-1.2-1.2l7.3-16.6
		l-3.8-3.7l-7.9,18.1v4.4L347,159.2L347,159.2L347,159.2z M178.7,407l-1.8-4.8l11.8-26.1l4.8-1.8l15.1,6.8l1.9,4.9l-3.6,7.9
		l-5.3-2.4l2.3-5.2l-0.7-1.6l-8.9-4.1l-1.6,0.6l-9.4,20.7l0.7,1.6l8.9,4.1l1.6-0.6l2.3-5.2l5.3,2.4l-3.6,7.9l-4.9,1.8L178.7,407
		L178.7,407L178.7,407z"/>
	<path class="st2" d="M193.8,414.3l-15.4-7l-2-5.2l11.9-26.4l5.2-2l15.4,7l2,5.2l-3.8,8.4l-6.1-2.8l2.4-5.4l-0.5-1.3l-8.6-3.9
		l-1.3,0.5l-9.2,20.3l0.5,1.3l8.6,3.9l1.3-0.5l2.4-5.4l6.1,2.8l-3.8,8.4l-5.2,1.9L193.8,414.3L193.8,414.3z M179.1,406.7l14.7,6.7
		l4.6-1.7l3.3-7.3l-4.5-2.1l-2.2,4.9l-2,0.7l-9.3-4.2l-0.8-1.9l9.5-21l2-0.7l9.3,4.2l0.8,1.9l-2.2,4.9l4.5,2.1l3.3-7.3l-1.8-4.5
		l-14.7-6.7l-4.5,1.7l-11.7,25.8L179.1,406.7L179.1,406.7L179.1,406.7z M221.2,422.1l5.1-35.5l5.8,0.9l-4.4,30.1l16.1,2.3l-0.8,5.5
		L221.2,422.1L221.2,422.1L221.2,422.1z"/>
	<path class="st2" d="M243.4,425.7l-22.6-3.3l5.3-36.4l6.6,1l-4.4,30.1l16.1,2.3L243.4,425.7L243.4,425.7z M221.7,421.8l21,3
		l0.7-4.6l-16.1-2.3l4.4-30.1l-4.9-0.7L221.7,421.8L221.7,421.8z M270.7,424.9l-4.1-3.1l-4.3-32l5.8-0.8l3.9,29l1.4,1l9.8-1.3l1-1.4
		l-4-29l5.8-0.8l4.3,32l-3.1,4.1L270.7,424.9L270.7,424.9L270.7,424.9z"/>
	<path class="st2" d="M270.6,425.4l-4.4-3.4l-4.4-32.6l6.6-0.9l4,29.3l1.1,0.8l9.4-1.3l0.8-1.1l-4-29.3l6.6-0.9l4.4,32.6l-3.4,4.4
		L270.6,425.4L270.6,425.4L270.6,425.4z M267,421.6l3.8,2.9l16-2.2l2.9-3.8l-4.3-31.4l-4.9,0.7l3.9,28.8l-1.2,1.6l-10.1,1.4
		l-1.6-1.2l-3.9-28.8l-4.9,0.7L267,421.6L267,421.6z M315.2,415.2l-14.9-32.7l18.3-8.3l4.8,1.8l4.5,9.9l-1.6,4.3v0.1l4.5,1.6
		l4.6,10.2l-1.8,4.8L315.2,415.2L315.2,415.2z M311.9,393.9l10-4.5l0.6-1.6l-3.1-6.9l-1.6-0.6l-10,4.5L311.9,393.9L311.9,393.9
		L311.9,393.9z M318.3,407.9l10.1-4.6l0.6-1.6l-3.2-7l-1.6-0.7l-10.1,4.6L318.3,407.9L318.3,407.9L318.3,407.9z"/>
	<path class="st2" d="M315,415.7l-15.2-33.5l18.8-8.6l5.2,2l4.7,10.2l-1.6,4.1l4.2,1.6l4.8,10.5l-2,5.2L315,415.7L315,415.7z
		 M300.9,382.7l14.5,31.9l17.8-8.1l1.7-4.5l-4.5-9.8l-4.4-1.6l-0.2-0.4l1.6-4.3l-4.4-9.6l-4.5-1.7L300.9,382.7L300.9,382.7
		L300.9,382.7z M318,408.5l-4.6-10l10.6-4.8l1.9,0.8l3.3,7.3l-0.7,2L318,408.5L318,408.5L318,408.5z M314.6,398.8l3.9,8.5l9.5-4.3
		l0.5-1.3l-3.1-6.7l-1.3-0.5L314.6,398.8L314.6,398.8z M311.7,394.5l-4.5-9.8l10.5-4.8l1.9,0.7l3.3,7.2l-0.7,1.9L311.7,394.5
		L311.7,394.5z M308.4,385.1l3.8,8.3l9.4-4.3l0.5-1.3l-3-6.6l-1.3-0.5L308.4,385.1L308.4,385.1z"/>
	<path class="st1" d="M256.1,215v-20.9H186v21.2c8-0.1,16-0.2,23.9-0.2c0,36.4,0,72.9,0,109.4c7.4-0.3,14.8-0.5,22.1-0.7V215
		L256.1,215L256.1,215L256.1,215z M303.3,193.9h-29.1c-8.1,43.3-16.2,86.4-24.3,129.7c7.8,0,15.6,0,23.5,0.1
		c1.2-7.6,2.4-15.2,3.6-22.9c8,0.1,16,0.3,24,0.6c1.3,7.7,2.5,15.4,3.7,23.2c7.8,0.3,15.6,0.7,23.3,1.2
		C319.7,281.2,311.5,237.4,303.3,193.9L303.3,193.9L303.3,193.9z M279.9,280.1c2.9-19.1,5.9-38.3,8.8-57.5c3,19.2,6,38.5,9,57.8
		C291.7,280.3,285.8,280.2,279.9,280.1L279.9,280.1z M153.6,302.8c0,1-0.4,1.9-1,2.7c-0.7,0.8-1.5,1.3-2.5,1.3
		c-5.2,0.4-10.3,0.8-15.5,1.3c-1,0.1-1.8-0.2-2.5-0.9c-0.7-0.7-1-1.5-1-2.5c0-36.9,0-73.8,0-110.7h-22.1v112.8c0,3.8,0.7,7.2,2,10.4
		c1.4,3.2,3.2,5.8,5.5,8c2.3,2.2,5.1,3.8,8.2,4.9c3.2,1.1,6.5,1.4,10,1c5.1-0.6,10.2-1.1,15.3-1.5c3.5-0.3,6.9-1.3,10-2.9
		c3.1-1.6,5.8-3.7,8.1-6.2c2.3-2.5,4.2-5.4,5.5-8.7c1.4-3.3,2-6.8,2-10.3c0-35.8,0-71.5,0.1-107.3h-22.1
		C153.7,230.3,153.7,266.5,153.6,302.8L153.6,302.8L153.6,302.8z M382.2,243.5c-8.1,2.1-16.2,4.3-24.3,6.4v-55.8h-22.1
		c0,44,0,88.1,0.1,132.1c7.4,0.5,14.7,1.1,22.1,1.7v-56.4c8.1-2,16.2-4,24.3-6v64.7c7.4,0.8,14.7,1.7,22,2.6V194.1h-22.1
		L382.2,243.5L382.2,243.5L382.2,243.5z"/>
</g>
</svg>
