<?xml version="1.0" encoding="UTF-8"?>
<svg id="a" data-name="Camada 1" xmlns="http://www.w3.org/2000/svg" width="605.42mm" height="444.62mm" viewBox="0 0 1716.16 1260.34">
  <defs>
    <style>
      .b {
        fill: #010101;
      }

      .c {
        fill: #fff;
      }

      .d {
        fill: #6cace4;
      }
    </style>
  </defs>
  <path class="d" d="M1716.16,779.87c1.27-243.57-253.24-395.21-334.44-421.52,0,0,153.97,223.39,142.61,377.36-5.02,67.89-38.7,90.03-72.63,94.58-.67-133.59-56.28-244.97-95.4-306.87l29.59-32.18s-61.54-163.74-311.13-362.23l-39.75,25.75L796.1,0l-238.57,154.55-37.12-24.04L0,467.6l301.39,162.38-61.63,39.92,331.28,178.51-60.1,38.93s231.24,128.18,460.33,109.63c21.6,13.45,44.06,26.23,67.14,37.86-114.73,60.08-249.16,27.32-249.16,27.32l-163.23,102.81c418.26,202.4,652.25,35.19,735.79-66,189.35-10.08,353.2-99.39,354.34-319.07h0Z"/>
  <path class="b" d="M1682.84,788.77c0-137.87-95.26-285-225.84-360.63,115.83,211.2,131.51,351.47,55.65,411.21-23.77,18.71-59.11,27.86-98.68,27.5.91-11.6,1.43-23.29,1.43-35.06,0-118.17-44-225.86-105.77-311.61l32.25-35.52s-67.3-142.71-269.77-309.85l-37.12,24.04-238.9-154.76-238.59,154.55-37.12-24.04L72.59,464.68l301.4,162.37-61.63,39.93,331.29,178.51-57.64,37.35,9.37,4.59c67.71,30.66,218.46,87.33,379.83,71.87,37.45,25.34,80.28,48.68,128.51,66.95-73.91,76.51-209.69,88.11-307.63,70.94l-97.17,62.94c91.34,42.35,197.12,62.58,289.09,62.58,125.22,0,239.28-37.52,318.71-116.08,12.56-12.43,23.95-25.67,34.31-39.55,197.54-2.61,341.79-102.62,341.79-278.3h0Z"/>
  <path class="c" d="M1288.09,770.65s33.81-10.28,67.02-2.53c-1.1-7.45-2.39-14.87-3.87-22.25-4.18-17.17-21.43-53.63-97.1-75.68,0,0,25.95-14.85,73.2-5.76-2.68-6.9-5.52-13.74-8.5-20.52-8.68-16.96-35.75-55.33-104.25-59.46,0,0,28.54-16.68,62.63-17.41-12.58-19.34-26.18-37.61-40.54-54.55l31.63-35.77c-28.5-45-90.49-130.34-201.04-227.44l-32.25,20.89-238.9-154.76-212.18,137.44,301.27,43.07,157.49,102.02-134.86-34.09-275.03,104.04,163.3,59.45-200.22,62.41,266.74,143.03s29.01-27.99,77.81-51.31h-.02c31.27-14.95,70.66-27.99,115.8-30.53,0,0-47.02-86.3-154.66-133.36l21.31-24.98s-37.65-13.86-126.77-20.64c0,0,104.07-51.05,211.04-43.8l130.14,84.31h55.74l-59.65,69.88c52.51,64.96,86.28,142.06,99.48,219.48,12.83,9.87,25.79,18.6,38.8,25.92,27.81,15.66,57.7,26.59,87.15,32.86.18-2.6.3-5.21.44-7.81-.26-17.17-7.26-61.9-71.15-82.13h0ZM1181.16,1049.66c-2.36,2.87-4.79,5.69-7.29,8.45-51.79,57.64-128.03,87.86-206.5,98.38-22.48,3.01-45.1,4.52-67.23,4.5,29.88,4.13,59.45,6.17,87.86,6.17,113.37,0,211.63-32.75,279.69-100.03,1.02-1,1.96-2.07,2.96-3.09-24.03-2.32-84.25-13.19-89.48-14.39"/>
  <path class="d" d="M1042.67,397.93l-158.94-150.81-187.75-29.16,100.09-102.56-212.16,137.44,301.26,43.07,157.49,102.02ZM907.83,363.84l-275.03,104.06,163.3,59.44-93.63-60.65,205.36-102.84ZM1034.99,270.14l62.36,40.39-30.1-61.28-32.27,20.89ZM862.62,732.8s29.01-27.99,77.81-51.31l-344.55-91.72,266.74,143.03ZM1232.83,801.8c12.83,9.87,25.79,18.6,38.8,25.92,3.29,1.86,6.63,3.62,9.97,5.35-1.91-31.76-7.67-65.01-17.45-99.39-16.69-58.16-44.24-113-80.37-161.52l9.23-59.72-59.65,69.91c52.52,64.96,86.28,142.05,99.48,219.45h0ZM1270.76,1064.06s-38.91-5.28-89.6-14.41c-2.36,2.87-4.79,5.69-7.29,8.45-51.79,57.64-128.04,87.85-206.5,98.38-22.47,3.01-45.1,4.52-67.23,4.5,0,0,40.41,2.94,71.69.91,4.06-.3,8.08-.64,12.05-1.02,3.4-.31,6.79-.67,10.18-1.08.2-.02.39-.05.59-.07,5.01-.59,10.03-1.27,15-2.06,75.78-11.46,137.28-40.2,182.59-82.02l78.51-11.6Z"/>
  <path class="c" d="M912.48,779.13c80.95-65.7,159.58-73.04,159.58-73.04,0,0,18.91,29.42,53.24,65.9,75.52,80.26,173.95,139.41,284.16,139.41,70.59,0,134.65-26.02,166.13-84.01,44.98-82.86,10.36-201.88-33.68-290.69,38.75,44.55,78.71,110.82,92.94,182.82,10.87,55.06,9.94,120.21-24.93,177.49-48.45,79.54-150.02,116.2-261.07,116.2-150.32-.02-312.1-79.88-436.35-234.08h0Z"/>
  <path class="d" d="M977.05,737.17c-22.95,11.65-44.59,25.72-64.57,41.95,90.29,112.05,205.91,193,339.66,223.51,32.12,7.34,68.04,11.12,104.6,10.49,62.32-10.97,90.29-37.4,90.29-37.4-267.91,34.27-421.35-162.52-469.99-238.56h0ZM999.71,485.08l-.08-.03s21.68,52.93,61.1,76.66l26.91-19.65,23.44-2.52-111.36-54.45Z"/>
  <path class="c" d="M547.64,373.61l-110.4,141.65,199.02-122.71-59.54-38.56,54.11-36.56-109.3-70.8-63.24,141.41,89.35-14.43Z"/>
  <path class="d" d="M376.02,431.39l102.46-17.48-41.23,101.36,110.4-141.65-89.35,14.42,63.24-141.41-334.14,211.78,216.84-88.02-28.22,61Z"/>
</svg>