<?xml version="1.0" encoding="UTF-8"?>
<!DOCTYPE svg PUBLIC "-//W3C//DTD SVG 1.1//EN" "http://www.w3.org/Graphics/SVG/1.1/DTD/svg11.dtd">
<svg xmlns="http://www.w3.org/2000/svg" version="1.1" width="1024px" height="1033px" style="shape-rendering:geometricPrecision; text-rendering:geometricPrecision; image-rendering:optimizeQuality; fill-rule:evenodd; clip-rule:evenodd" xmlns:xlink="http://www.w3.org/1999/xlink">
<g><path style="opacity:0.991" fill="#6cace4" d="M 479.5,-0.5 C 500.5,-0.5 521.5,-0.5 542.5,-0.5C 695.11,12.2126 819.277,77.8793 915,196.5C 980.241,281.7 1016.41,378.033 1023.5,485.5C 1023.5,505.5 1023.5,525.5 1023.5,545.5C 1011.35,702.997 943.68,830.497 820.5,928C 699.351,1017.03 564.351,1048.7 415.5,1023C 267.029,991.571 152.862,911.737 73,783.5C 29.6473,709.945 5.14726,630.611 -0.5,545.5C -0.5,525.5 -0.5,505.5 -0.5,485.5C 9.62119,346.104 65.2879,228.604 166.5,133C 255.37,53.0726 359.703,8.57264 479.5,-0.5 Z"/></g>
<g><path style="opacity:1" fill="#fdfefe" d="M 485.5,44.5 C 632.424,39.8374 756.591,90.1707 858,195.5C 960.486,311.678 999.486,446.678 975,600.5C 944.676,747.414 864.51,857.58 734.5,931C 619.289,990.565 499.289,1002.56 374.5,967C 262.169,931.116 174.335,863.616 111,764.5C 41.3221,647.423 23.3221,522.756 57,390.5C 91.7036,272.169 160.87,180.003 264.5,114C 332.509,72.6067 406.176,49.44 485.5,44.5 Z"/></g>
<g><path style="opacity:1" fill="#6cace3" d="M 483.5,79.5 C 619.702,73.9342 735.202,119.601 830,216.5C 929.463,327.637 965.796,456.971 939,604.5C 910.639,727.825 843.139,822.992 736.5,890C 635.13,948.47 527.13,965.47 412.5,941C 291.456,910.231 198.623,841.731 134,735.5C 68.5844,617.014 57.5844,493.681 101,365.5C 150.781,238.386 239.614,150.886 367.5,103C 405.242,89.9519 443.909,82.1186 483.5,79.5 Z"/></g>
<g><path style="opacity:1" fill="#fcfdfe" d="M 485.5,128.5 C 487.527,128.338 489.527,128.505 491.5,129C 494.052,131.853 496.885,134.353 500,136.5C 501.328,143.427 502.161,150.427 502.5,157.5C 497.547,158.329 492.547,158.663 487.5,158.5C 487.086,153.926 486.419,149.426 485.5,145C 477.439,144.402 469.439,144.902 461.5,146.5C 460.923,148.106 460.59,149.772 460.5,151.5C 462.114,167.547 463.948,183.547 466,199.5C 466.804,200.804 467.971,201.471 469.5,201.5C 476.153,200.601 482.82,199.768 489.5,199C 491.007,197.527 491.674,195.693 491.5,193.5C 490.947,190.183 490.614,186.85 490.5,183.5C 495.484,182.725 500.484,182.058 505.5,181.5C 506.335,188.832 506.835,196.166 507,203.5C 504.618,206.427 502.118,209.261 499.5,212C 487.524,213.698 475.524,215.198 463.5,216.5C 458.719,214.903 454.552,212.236 451,208.5C 448.501,186.176 446.501,163.843 445,141.5C 446.977,138.688 449.144,136.022 451.5,133.5C 462.978,131.83 474.311,130.164 485.5,128.5 Z"/></g>
<g><path style="opacity:1" fill="#fcfdfe" d="M 558.5,130.5 C 563.19,131.138 567.856,131.971 572.5,133C 573.059,133.725 573.392,134.558 573.5,135.5C 570.982,146.421 568.982,157.421 567.5,168.5C 571.49,169.19 575.49,169.357 579.5,169C 587.025,158.814 594.525,148.648 602,138.5C 606.821,139.897 611.654,141.231 616.5,142.5C 608.528,154.305 600.361,165.972 592,177.5C 591.333,180.167 591.333,182.833 592,185.5C 595.067,198.2 598.234,210.866 601.5,223.5C 596.168,223.884 590.835,223.217 585.5,221.5C 582.56,209.53 579.727,197.53 577,185.5C 575.991,184.342 574.658,183.675 573,183.5C 569.923,182.536 566.923,182.536 564,183.5C 562.385,193.907 560.385,204.24 558,214.5C 553.861,215.583 549.694,215.416 545.5,214C 543.543,211.879 543.043,209.379 544,206.5C 549.029,181.188 553.862,155.855 558.5,130.5 Z"/></g>
<g><path style="opacity:1" fill="#fcfdfe" d="M 374.5,152.5 C 379.978,152.77 384.978,154.437 389.5,157.5C 398.167,177.5 406.833,197.5 415.5,217.5C 413.685,221.623 411.685,225.623 409.5,229.5C 398.058,234.638 386.558,239.638 375,244.5C 370.87,243.1 366.87,241.434 363,239.5C 354.401,219.202 345.901,198.868 337.5,178.5C 338.502,174.334 340.169,170.501 342.5,167C 353.376,162.391 364.042,157.558 374.5,152.5 Z"/></g>
<g><path style="opacity:1" fill="#fcfdfe" d="M 669.5,161.5 C 685.161,169.329 700.494,177.662 715.5,186.5C 713.588,190.66 711.421,194.66 709,198.5C 698.175,193.088 687.508,187.421 677,181.5C 673.191,186.95 670.024,192.783 667.5,199C 675.988,204.748 684.988,209.748 694.5,214C 695.175,216.242 694.675,218.409 693,220.5C 691.414,222.67 690.08,225.004 689,227.5C 679.81,222.238 670.477,217.238 661,212.5C 657.13,218.053 653.63,223.887 650.5,230C 661.34,236.254 672.34,242.254 683.5,248C 681.611,252.29 679.111,256.123 676,259.5C 660.612,251.89 645.445,243.89 630.5,235.5C 643.558,210.8 656.558,186.133 669.5,161.5 Z"/></g>
<g><path style="opacity:1" fill="#6dace4" d="M 373.5,168.5 C 375.484,168.383 377.15,169.05 378.5,170.5C 385.23,185.695 391.563,201.028 397.5,216.5C 397.167,217.5 396.833,218.5 396.5,219.5C 389.56,223.486 382.226,225.986 374.5,227C 367.284,211.568 360.617,195.901 354.5,180C 354.585,178.893 354.919,177.893 355.5,177C 361.712,174.392 367.712,171.558 373.5,168.5 Z"/></g>
<g><path style="opacity:1" fill="#fcfdfe" d="M 281.5,202.5 C 300.53,223.199 318.863,244.533 336.5,266.5C 333.542,269.324 330.542,272.158 327.5,275C 326.5,275.667 325.5,275.667 324.5,275C 317.274,266.698 309.941,258.531 302.5,250.5C 296.5,255.5 290.5,260.5 284.5,265.5C 283.417,266.365 283.251,267.365 284,268.5C 291.52,276.385 298.687,284.552 305.5,293C 302.109,296.768 298.276,299.935 294,302.5C 275.483,281.648 257.316,260.481 239.5,239C 243.167,235.833 246.833,232.667 250.5,229.5C 258.157,238.126 265.824,246.793 273.5,255.5C 280.021,249.811 286.688,244.311 293.5,239C 285.978,230.313 278.645,221.479 271.5,212.5C 274.548,208.785 277.881,205.452 281.5,202.5 Z"/></g>
<g><path style="opacity:1" fill="#fcfdfe" d="M 758.5,217.5 C 763.282,220.447 767.282,224.28 770.5,229C 765.304,241.225 759.971,253.392 754.5,265.5C 755.365,266.583 756.365,266.749 757.5,266C 769.167,260.5 780.833,255 792.5,249.5C 796.5,253.167 800.5,256.833 804.5,260.5C 790.175,267.329 775.842,274.162 761.5,281C 757.833,281.333 754.167,281.667 750.5,282C 743.683,289.984 736.35,297.484 728.5,304.5C 724.5,301.167 720.833,297.5 717.5,293.5C 724.485,286.014 731.652,278.681 739,271.5C 739.333,267.833 739.667,264.167 740,260.5C 746.73,246.378 752.896,232.044 758.5,217.5 Z"/></g>
<g><path style="opacity:1" fill="#020203" d="M 174.5,373.5 C 191.5,373.5 208.5,373.5 225.5,373.5C 225.333,459.167 225.5,544.834 226,630.5C 226.465,631.931 227.299,633.097 228.5,634C 242.508,633.867 256.508,633.2 270.5,632C 273,630.833 274.833,629 276,626.5C 276.5,542.167 276.667,457.834 276.5,373.5C 293.5,373.5 310.5,373.5 327.5,373.5C 327.667,457.834 327.5,542.167 327,626.5C 321.145,659.021 301.979,678.188 269.5,684C 255.475,684.969 241.475,686.136 227.5,687.5C 199.326,686.48 182.16,672.147 176,644.5C 174.515,554.197 174.015,463.864 174.5,373.5 Z"/></g>
<g><path style="opacity:1" fill="#010102" d="M 675.5,671.5 C 675.5,672.5 675.5,673.5 675.5,674.5C 672.5,674.5 669.5,674.5 666.5,674.5C 651.826,673.954 637.16,673.288 622.5,672.5C 620.483,655.062 617.816,637.729 614.5,620.5C 595.855,619.213 577.189,618.547 558.5,618.5C 556.167,635.831 553.834,653.164 551.5,670.5C 533.5,670.5 515.5,670.5 497.5,670.5C 516.112,571.549 534.445,472.549 552.5,373.5C 575.167,373.5 597.833,373.5 620.5,373.5C 639.205,472.773 657.539,572.106 675.5,671.5 Z"/></g>
<g><path style="opacity:1" fill="#010102" d="M 744.5,373.5 C 744.5,416.167 744.5,458.833 744.5,501.5C 745.791,501.737 746.791,501.404 747.5,500.5C 764.929,496.476 782.262,492.143 799.5,487.5C 801.494,449.848 802.161,411.848 801.5,373.5C 818.167,373.5 834.833,373.5 851.5,373.5C 851.833,479.502 851.5,585.502 850.5,691.5C 834.481,689.664 818.481,687.664 802.5,685.5C 801.5,636.171 801.167,586.838 801.5,537.5C 782.767,541.517 764.1,545.85 745.5,550.5C 745.5,593.833 745.5,637.167 745.5,680.5C 728.513,679.042 711.513,677.709 694.5,676.5C 694.5,575.5 694.5,474.5 694.5,373.5C 711.167,373.5 727.833,373.5 744.5,373.5 Z"/></g>
<g><path style="opacity:1" fill="#1a2835" d="M 744.5,373.5 C 744.835,416.01 745.835,458.343 747.5,500.5C 746.791,501.404 745.791,501.737 744.5,501.5C 744.5,458.833 744.5,416.167 744.5,373.5 Z"/></g>
<g><path style="opacity:1" fill="#3d6281" d="M 801.5,373.5 C 802.161,411.848 801.494,449.848 799.5,487.5C 800.161,449.402 800.827,411.402 801.5,373.5 Z"/></g>
<g><path style="opacity:1" fill="#2c465d" d="M 351.5,373.5 C 351.5,389.5 351.5,405.5 351.5,421.5C 369.674,421.17 387.674,421.503 405.5,422.5C 387.167,422.5 368.833,422.5 350.5,422.5C 350.17,405.991 350.504,389.658 351.5,373.5 Z"/></g>
<g><path style="opacity:1" fill="#010101" d="M 351.5,373.5 C 404.833,373.5 458.167,373.5 511.5,373.5C 511.5,389.5 511.5,405.5 511.5,421.5C 493.167,421.5 474.833,421.5 456.5,421.5C 455.501,504.332 455.167,587.332 455.5,670.5C 452.615,670.194 449.948,670.527 447.5,671.5C 433.485,671.375 419.485,671.709 405.5,672.5C 405.5,589.167 405.5,505.833 405.5,422.5C 387.674,421.503 369.674,421.17 351.5,421.5C 351.5,405.5 351.5,389.5 351.5,373.5 Z"/></g>
<g><path style="opacity:1" fill="#0d151b" d="M 456.5,421.5 C 456.5,504.833 456.5,588.167 456.5,671.5C 453.5,671.5 450.5,671.5 447.5,671.5C 449.948,670.527 452.615,670.194 455.5,670.5C 455.167,587.332 455.501,504.332 456.5,421.5 Z"/></g>
<g><path style="opacity:1" fill="#416788" d="M 587.5,444.5 C 586.833,444.5 586.167,444.5 585.5,444.5C 586.167,439.167 586.833,439.167 587.5,444.5 Z"/></g>
<g><path style="opacity:1" fill="#68a6dd" d="M 585.5,444.5 C 586.167,444.5 586.833,444.5 587.5,444.5C 594.485,486.731 600.819,529.065 606.5,571.5C 593.167,571.5 579.833,571.5 566.5,571.5C 572.368,529.088 578.702,486.754 585.5,444.5 Z"/></g>
<g><path style="opacity:1" fill="#2d485f" d="M 675.5,671.5 C 676.434,672.568 676.768,673.901 676.5,675.5C 672.958,675.813 669.625,675.479 666.5,674.5C 669.5,674.5 672.5,674.5 675.5,674.5C 675.5,673.5 675.5,672.5 675.5,671.5 Z"/></g>
<g><path style="opacity:1" fill="#fcfdfe" d="M 653.5,785.5 C 658.256,786.461 662.756,788.127 667,790.5C 670.693,797.915 674.193,805.415 677.5,813C 675.822,816.019 674.989,819.185 675,822.5C 678.219,823.793 681.219,825.46 684,827.5C 687.693,834.915 691.193,842.415 694.5,850C 693.024,854.098 691.358,858.098 689.5,862C 675.62,868.774 661.62,875.274 647.5,881.5C 635.44,856.544 623.773,831.377 612.5,806C 612.645,805.228 612.978,804.561 613.5,804C 627.044,798.058 640.377,791.891 653.5,785.5 Z"/></g>
<g><path style="opacity:1" fill="#fcfdfe" d="M 366.5,785.5 C 378.584,790.373 390.584,795.54 402.5,801C 405.133,804.557 406.8,808.557 407.5,813C 405.344,819.81 402.511,826.31 399,832.5C 394.454,830.478 389.954,828.311 385.5,826C 386.855,822.788 388.355,819.622 390,816.5C 390.743,814.559 390.576,812.726 389.5,811C 382.944,807.888 376.277,805.055 369.5,802.5C 368.558,802.608 367.725,802.941 367,803.5C 359.748,818.836 352.914,834.336 346.5,850C 346.585,851.107 346.919,852.107 347.5,853C 353.942,855.971 360.442,858.804 367,861.5C 368.395,861.22 369.562,860.553 370.5,859.5C 371.806,855.554 373.639,851.888 376,848.5C 380.546,850.522 385.046,852.689 389.5,855C 386.6,861.192 383.6,867.359 380.5,873.5C 376.635,875.067 372.802,876.734 369,878.5C 357.559,873.196 346.059,868.03 334.5,863C 332.424,859.012 330.758,854.846 329.5,850.5C 338.235,830.464 347.068,810.464 356,790.5C 359.628,788.912 363.128,787.246 366.5,785.5 Z"/></g>
<g><path style="opacity:1" fill="#6fade4" d="M 650.5,802.5 C 653.044,802.104 655.211,802.771 657,804.5C 658.393,808.286 660.059,811.952 662,815.5C 662.667,817.167 662.667,818.833 662,820.5C 654.909,823.962 647.742,827.295 640.5,830.5C 637.36,824.388 634.36,818.221 631.5,812C 637.894,808.803 644.227,805.636 650.5,802.5 Z"/></g>
<g><path style="opacity:1" fill="#fbfcfe" d="M 442.5,814.5 C 447.482,815.053 452.482,815.387 457.5,815.5C 453.754,838.725 450.754,862.058 448.5,885.5C 459.975,887.211 471.475,888.877 483,890.5C 483.5,890.833 484,891.167 484.5,891.5C 483.462,895.769 482.795,900.102 482.5,904.5C 465.113,902.54 447.78,900.207 430.5,897.5C 434.418,869.827 438.418,842.161 442.5,814.5 Z"/></g>
<g><path style="opacity:1" fill="#fcfdfe" d="M 574.5,814.5 C 576.833,814.5 579.167,814.5 581.5,814.5C 583.872,836.554 586.706,858.554 590,880.5C 591.633,887.735 589.467,893.569 583.5,898C 570.283,900.854 556.95,902.521 543.5,903C 540.688,901.023 538.022,898.856 535.5,896.5C 532.37,874.492 529.203,852.492 526,830.5C 525.333,827.5 525.333,824.5 526,821.5C 530.749,820.508 535.582,819.842 540.5,819.5C 543.005,841.863 545.838,864.196 549,886.5C 549.739,887.574 550.739,888.241 552,888.5C 559.229,887.76 566.395,886.593 573.5,885C 574.122,883.431 574.456,881.764 574.5,880C 571.65,858.514 568.983,837.014 566.5,815.5C 569.385,815.806 572.052,815.473 574.5,814.5 Z"/></g>
<g><path style="opacity:1" fill="#6eade4" d="M 665.5,833.5 C 667.722,833.178 669.556,833.845 671,835.5C 674.182,840.506 676.182,845.839 677,851.5C 670.107,855.636 662.941,859.302 655.5,862.5C 652.026,856.585 649.026,850.418 646.5,844C 652.699,840.215 659.032,836.715 665.5,833.5 Z"/></g>
</svg>
